<svg xmlns="http://www.w3.org/2000/svg" xmlns:xlink="http://www.w3.org/1999/xlink" width="500" zoomAndPan="magnify" viewBox="0 0 375 374.999991" height="500" preserveAspectRatio="xMidYMid meet" version="1.0"><defs><clipPath id="409c3e5ab0"><path d="M 67.625 0 L 326.375 0 L 326.375 375 L 67.625 375 Z M 67.625 0 " clip-rule="nonzero"/></clipPath></defs><g clip-path="url(#409c3e5ab0)"><path fill="#202020" d="M 325.816406 266.179688 C 325.660156 266.089844 325.527344 265.964844 325.375 265.859375 C 319.128906 261.15625 312.558594 253.699219 312.15625 245.566406 C 312.589844 239.339844 312.34375 231.503906 306.1875 228.105469 C 302.566406 225.957031 298.367188 225.304688 294.285156 224.628906 C 293.695312 224.519531 293.5 224.644531 293.320312 225.230469 C 293.136719 225.5625 292.855469 227.910156 292.292969 227.003906 C 291.507812 223.84375 290.464844 220.757812 289.730469 217.582031 C 285.574219 200.109375 287.957031 181.632812 294.761719 165.148438 C 300.359375 151.167969 307.5625 137.441406 308.441406 122.125 C 309.074219 112.4375 308.332031 102.25 304.4375 93.25 C 302.566406 88.988281 297.792969 87.878906 294.027344 86.050781 C 294.203125 85.574219 295.597656 85.570312 296.109375 85.445312 C 308.277344 84.636719 318.796875 73.597656 317.578125 61.253906 C 317.1875 61.242188 317.023438 61.671875 316.789062 61.914062 C 315 64.09375 312.582031 65.492188 309.875 66.140625 C 309.660156 66.1875 309.601562 65.9375 309.652344 65.800781 C 310.628906 64.023438 311.0625 62.089844 311.335938 60.105469 C 311.886719 55.832031 312.042969 51.515625 311.765625 47.210938 C 311.785156 47.007812 311.671875 46.761719 311.464844 46.785156 C 310.230469 47.839844 309.042969 48.941406 307.617188 49.757812 C 307.339844 49.890625 306.980469 50.246094 306.664062 50.101562 C 307.714844 45.621094 307.503906 40.902344 306.703125 36.347656 C 306.566406 35.996094 306.414062 32.996094 305.800781 34.382812 C 304.34375 38.484375 300.863281 44.875 296.492188 46.152344 C 298.109375 44.480469 300.015625 43.035156 301.078125 40.871094 C 301.632812 39.8125 302.207031 38.765625 302.757812 37.707031 C 302.867188 37.503906 303.117188 37.257812 302.84375 37.050781 C 300.664062 38.40625 298.484375 40.050781 295.84375 40.527344 C 294.679688 40.683594 291.675781 41.535156 290.773438 41.09375 C 291.191406 40.195312 292.128906 39.609375 292.617188 38.726562 C 294.054688 36.503906 294.75 33.984375 295.394531 31.457031 C 295.414062 31.375 295.351562 31.207031 295.296875 31.1875 C 294.835938 31.214844 294.601562 31.800781 294.273438 32.078125 C 292.324219 34.324219 289.886719 36.144531 287.121094 37.238281 C 285.085938 38.023438 283.070312 37.785156 281.09375 36.992188 C 280.425781 36.519531 281.664062 36.273438 281.941406 36.0625 C 282.96875 35.585938 283.878906 34.945312 284.699219 34.164062 C 285.21875 33.855469 288.738281 29 286.394531 30.558594 C 279.460938 34.542969 272.074219 30.40625 265.640625 27.460938 C 263.308594 26.476562 260.984375 25.445312 258.464844 25.011719 C 258.070312 24.941406 258.011719 24.75 258.261719 24.421875 C 262.035156 20.613281 263.441406 14.265625 260.101562 9.75 C 259.15625 8.464844 257.453125 6.976562 255.8125 6.96875 C 255.652344 7.128906 255.863281 7.28125 255.976562 7.402344 C 257.28125 8.796875 256.976562 10.789062 256.429688 12.4375 C 255.363281 15.523438 253.128906 17.480469 250.183594 18.675781 C 243.113281 21.359375 233.652344 17.296875 226.316406 16.214844 C 222.664062 15.519531 218.984375 14.773438 215.25 14.757812 C 215.050781 14.726562 214.667969 14.8125 214.597656 14.566406 C 219.085938 12.746094 224.378906 12.953125 229.222656 12.789062 C 231.78125 12.71875 234.269531 13.109375 236.738281 13.726562 C 237.269531 13.789062 237.832031 14.164062 238.351562 13.972656 C 230.105469 9.867188 220.613281 8.484375 211.488281 7.589844 C 203.554688 6.953125 195.578125 6.363281 187.628906 7.082031 C 187.484375 7.0625 187.296875 6.925781 187.488281 6.769531 C 189.792969 4.863281 192.695312 4.140625 195.519531 3.4375 C 195.605469 3.171875 194.96875 3.148438 194.785156 3.101562 C 190.542969 2.667969 186.332031 3.433594 182.164062 4.144531 C 175.140625 5.46875 167.953125 6.390625 161.382812 9.199219 C 162.605469 6.519531 165.925781 4.515625 168.394531 3 C 170.179688 2 172.066406 1.292969 174.113281 1.070312 C 174.589844 1.085938 174.652344 0.746094 174.203125 0.574219 C 164.640625 -1.511719 155.269531 3.609375 146.292969 6.277344 C 144.933594 6.761719 143.566406 7.257812 142.324219 8.023438 C 142.109375 8.121094 141.21875 8.664062 141.328125 8.09375 C 143.398438 4.640625 147.183594 2.136719 151.042969 1.085938 C 151.554688 0.949219 152.105469 0.851562 152.539062 0.53125 C 143.621094 -2.078125 133.039062 5.644531 126.25 10.886719 C 116.003906 18.984375 106.480469 30.304688 108.332031 44.195312 C 108.15625 44.449219 108.027344 44.109375 107.953125 43.960938 C 105.621094 38.871094 105.417969 33.242188 106.109375 27.796875 C 96.4375 46.222656 107.0625 67.519531 119.203125 82.097656 C 119.742188 82.644531 119.277344 83.003906 118.875 83.457031 C 114.042969 88.832031 112.164062 95.957031 111.15625 102.941406 C 110.800781 105.085938 110.4375 107.230469 109.980469 109.34375 C 108.660156 114.769531 105.457031 119.535156 104.25 125.019531 C 104.152344 125.421875 103.714844 127.339844 104.476562 126.117188 C 106.0625 123.101562 108.15625 120.394531 110.09375 117.605469 C 113.292969 113.3125 113.785156 107.832031 114.667969 102.71875 C 115.527344 97.269531 116.882812 91.746094 120.21875 87.234375 C 122.363281 83.96875 126.105469 82.5625 129.207031 80.398438 C 140.851562 71.792969 151.945312 69.292969 166.273438 69.765625 C 166.273438 69.738281 166.273438 69.710938 166.28125 69.679688 C 170.875 69.839844 175.46875 70.09375 180.027344 70.707031 C 181.890625 70.9375 183.75 71.25 185.609375 71.527344 C 185.941406 71.550781 186.460938 71.683594 186.3125 72.117188 C 185.65625 74.492188 185.03125 76.871094 184.410156 79.25 C 184.1875 80.101562 183.984375 80.191406 185.152344 80.164062 C 188.773438 80.082031 192.394531 80.019531 196.011719 79.933594 C 197.792969 79.890625 197.5 79.90625 197.191406 81.347656 C 196.25 85.667969 194.195312 89.753906 191.003906 92.84375 C 190.128906 93.707031 189.304688 94.625 188.464844 95.519531 C 188.019531 95.996094 187.871094 96.574219 187.863281 97.214844 C 187.875 98.972656 188.644531 100.589844 189.113281 102.25 C 189.34375 103.371094 189.949219 102.578125 190.453125 102.160156 C 191.375 101.988281 190.410156 103.195312 190.375 103.761719 C 190.355469 104.234375 189.507812 105.941406 190.484375 105.730469 C 191.726562 105.320312 193.039062 105.199219 194.3125 105.027344 C 195.054688 105.292969 193.957031 105.964844 193.84375 106.382812 C 193.515625 107.015625 194.457031 106.972656 194.855469 107.0625 C 198.503906 107.484375 199.714844 111.632812 201.332031 114.371094 C 201.808594 114.976562 202.285156 116.984375 203.167969 116.640625 C 204.863281 116.019531 206.582031 115.441406 208.316406 114.9375 C 231.082031 108.910156 264.042969 112.90625 271.734375 138.992188 C 274.222656 148.019531 273.667969 157.628906 272.109375 166.777344 C 270.472656 175.269531 270.847656 184.019531 272.75 192.433594 C 276.03125 207.214844 283.460938 220.5625 290.953125 233.570312 C 291.625 234.472656 289.804688 234.882812 289.3125 235.425781 C 270.507812 249.386719 251.636719 263.277344 233.492188 278.089844 C 227.296875 282.941406 221.101562 288.289062 214.097656 291.8125 C 229.519531 267.226562 242.832031 237.78125 236.511719 208.1875 C 236.167969 206.597656 235.746094 205.023438 235.359375 203.441406 C 235.269531 202.90625 234.933594 202.230469 235.519531 201.855469 C 247.90625 192.734375 256.269531 178.863281 259.082031 163.789062 C 259.269531 162.808594 259.628906 162.703125 260.246094 163.558594 C 260.742188 164.082031 261.21875 164.628906 261.753906 165.113281 C 264.019531 167.105469 267.507812 166.613281 270.105469 165.589844 C 272.101562 164.5625 272.597656 163.351562 271.222656 161.550781 C 268.425781 157.675781 265.515625 153.882812 262.648438 150.0625 C 261.925781 149.117188 261.75 147.949219 261.558594 146.808594 C 260.132812 133.773438 246.777344 124.222656 234.621094 131.152344 C 233.902344 131.566406 233.175781 131.769531 232.339844 131.5625 C 226.351562 130.574219 220.3125 129.78125 214.3125 128.816406 C 192.347656 125.246094 170.355469 121.835938 148.398438 118.25 C 143.253906 118.453125 138.199219 120.015625 133.113281 120.835938 C 126.25 122.265625 109.382812 125.980469 105.949219 132.175781 C 105.617188 132.414062 105.292969 132.335938 104.984375 132.105469 C 104.03125 131.5625 103.09375 132.101562 102.257812 132.605469 C 97.585938 135.359375 93.300781 138.605469 89.480469 142.46875 C 87.765625 144.199219 87.457031 144.738281 87.601562 147.40625 C 87.894531 152.898438 88.585938 158.398438 90.363281 163.625 C 90.558594 164.21875 90.480469 164.621094 90.132812 165.117188 C 86.335938 170.585938 87.957031 179.492188 94.394531 182.210938 C 95.800781 182.851562 97.3125 183.421875 98.320312 184.65625 C 98.683594 185.082031 98.652344 185.253906 98.125 185.410156 C 97.109375 185.714844 96.175781 186.1875 95.308594 186.789062 C 93.925781 187.742188 92.710938 188.871094 91.769531 190.269531 C 91.34375 190.902344 90.789062 191.136719 90.089844 190.964844 C 87.105469 190.339844 86.121094 187.816406 86.191406 185.058594 C 86.074219 185.117188 85.90625 185.148438 85.847656 185.246094 C 85.054688 186.582031 84.273438 187.921875 83.902344 189.464844 C 81.53125 197.832031 90.355469 202.46875 96.976562 204.710938 C 97.632812 204.90625 97.292969 205.539062 97.140625 206 C 96.34375 208.46875 96.878906 211.25 98.449219 213.300781 C 98.800781 213.769531 98.78125 213.875 98.425781 214.355469 C 94.425781 219.636719 91.519531 225.675781 87.273438 230.785156 C 85.183594 233.269531 82.660156 235.511719 79.527344 236.535156 C 78.707031 236.773438 78.777344 237.085938 79.585938 237.171875 C 81.058594 237.316406 82.53125 237.515625 84.019531 237.347656 C 84.234375 237.328125 84.542969 237.148438 84.660156 237.460938 C 84.621094 237.632812 84.074219 237.984375 83.851562 238.097656 C 81.679688 239.378906 80.566406 241.792969 79.957031 244.144531 C 79.933594 244.460938 79.605469 245.527344 79.933594 245.664062 C 82 242.003906 85.34375 239.035156 89.492188 237.851562 C 89.742188 237.78125 89.882812 237.96875 89.769531 238.195312 C 83.605469 251.347656 67.957031 257.203125 68.089844 273.320312 C 68.582031 273.019531 68.710938 272.375 69.039062 271.917969 C 70.554688 269.09375 72.75 266.726562 75.25 264.746094 C 75.464844 264.617188 77.035156 263.320312 76.875 264.101562 C 70.140625 276.964844 63.464844 290.378906 71.109375 304.441406 C 70.648438 298.6875 69.8125 291.589844 73.792969 286.804688 C 73.816406 286.785156 73.863281 286.769531 73.886719 286.777344 C 74.023438 286.9375 73.816406 287.191406 73.789062 287.378906 C 73.164062 288.96875 72.71875 290.609375 72.515625 292.308594 C 71.46875 310.027344 84.574219 333.703125 99.839844 342.542969 C 87.363281 323.832031 109.425781 307.988281 125.550781 302.796875 C 121.457031 306.214844 117.847656 310.25 115.167969 314.917969 C 114.707031 315.695312 114.359375 316.53125 113.960938 317.347656 C 113.941406 317.394531 113.988281 317.476562 114.011719 317.539062 C 119.082031 311.980469 125.984375 308.800781 132.648438 305.507812 C 140.449219 301.539062 147.214844 295.167969 155.625 292.597656 C 155.269531 293.542969 154.285156 294.1875 153.734375 295.050781 C 152.320312 296.996094 150.476562 298.542969 148.769531 300.183594 C 157.8125 296.394531 166.992188 290.757812 172.382812 282.230469 C 173.566406 280.351562 174.429688 278.320312 175.1875 276.246094 C 175.300781 276.015625 175.359375 275.496094 175.707031 275.613281 C 178.171875 280.0625 182.507812 282.933594 186.992188 285.097656 C 187.714844 285.472656 187.933594 285.582031 187.109375 286.140625 C 176.800781 293.195312 167.570312 301.863281 160.28125 312.027344 C 147.355469 329.570312 139.253906 356.566406 154.699219 375 C 178.777344 317.972656 225.039062 289.332031 274.488281 254.425781 C 281.683594 249.507812 288.515625 244.011719 295.945312 239.464844 C 299.722656 237.128906 305.238281 240.128906 304.429688 244.742188 C 304.210938 246.039062 303.566406 247.109375 302.695312 248.058594 C 289.90625 262.082031 277.078125 276.171875 264.566406 290.394531 C 276.460938 282.132812 288.332031 273.402344 300.160156 264.90625 C 300.386719 264.75 300.625 264.363281 300.875 264.558594 C 301.152344 264.777344 300.796875 265.0625 300.667969 265.292969 C 300.347656 265.859375 299.980469 266.394531 299.667969 266.96875 C 297.074219 271.734375 293.828125 276.027344 290.191406 280.039062 C 269.960938 301.90625 242.167969 314.511719 220.3125 334.457031 C 215.160156 339.117188 210.074219 343.878906 205.480469 349.097656 C 205.414062 349.199219 205.25 349.316406 205.285156 349.445312 C 205.441406 349.515625 205.5625 349.269531 205.699219 349.199219 C 219.917969 336.625 235.402344 325.546875 251.867188 316.097656 C 272.109375 304.097656 294.285156 295.28125 313.226562 281.148438 C 318.21875 277.257812 322.835938 272.769531 326.082031 267.300781 C 326.390625 266.8125 326.421875 266.527344 325.816406 266.179688 Z M 111.125 44.289062 C 111.074219 38.4375 113 32.527344 116.292969 27.855469 C 115.457031 32.792969 115.128906 37.804688 115.269531 42.851562 C 115.179688 49.691406 116.550781 56.636719 118.214844 63.085938 C 113.566406 58.140625 111 51.113281 111.125 44.289062 Z M 124.429688 58.5 C 117.03125 49.179688 117 34.957031 123.058594 24.8125 C 123.328125 24.523438 125.121094 20.753906 125.28125 22.1875 C 123.765625 27.03125 123.449219 32.117188 123.085938 37.144531 C 122.554688 44.296875 122.914062 51.488281 124.429688 58.5 Z M 282.730469 67.625 C 283.746094 68.417969 284.828125 68.832031 286.109375 68.882812 C 291.71875 69.621094 297.300781 69.300781 302.742188 67.730469 C 299.476562 69.875 295.472656 70.90625 291.632812 71.605469 C 290.5625 71.765625 289.472656 71.851562 288.402344 71.996094 C 288.160156 72.046875 287.78125 72.085938 287.722656 72.234375 C 287.613281 72.503906 287.980469 72.605469 288.160156 72.765625 C 288.492188 73.050781 288.835938 73.3125 289.152344 73.605469 C 290.066406 74.453125 290.339844 74.957031 290.175781 74.871094 C 288.058594 73.625 286.273438 71.867188 283.683594 71.625 C 280.082031 71.132812 276.804688 69.71875 273.71875 67.820312 C 266.132812 63.375 259.480469 57.460938 251.636719 53.453125 C 251.167969 53.265625 250.367188 52.8125 251.390625 52.832031 C 251.394531 52.8125 251.398438 52.789062 251.40625 52.773438 C 262.742188 55.441406 273.523438 60.476562 282.730469 67.625 Z M 128.203125 48.636719 C 127.46875 51.167969 126.347656 40.613281 126.578125 38.929688 C 126.433594 30.347656 132.546875 19.4375 140.347656 14.730469 C 140.382812 14.769531 140.398438 14.871094 140.375 14.914062 C 139.027344 17.015625 137.882812 19.238281 136.746094 21.457031 C 132.648438 30.027344 129.046875 39.105469 128.203125 48.636719 Z M 133.371094 46.914062 C 134.375 31.597656 145.8125 19.007812 160.339844 14.917969 C 160.53125 14.917969 161.136719 14.621094 161.152344 14.945312 C 149.667969 23.464844 140.238281 34.648438 133.4375 47.121094 C 133.414062 47.09375 133.382812 46.960938 133.371094 46.914062 Z M 141.1875 53.753906 C 141.125 53.625 141.082031 53.585938 141.128906 53.425781 C 145.316406 31.921875 168.003906 20.289062 188.265625 19.296875 C 169.554688 25.515625 152.125 37.164062 141.1875 53.753906 Z M 157.457031 52.597656 C 165.734375 35.613281 185.585938 27.097656 203.671875 26.980469 C 210.476562 27.191406 215.738281 27.550781 221.925781 29.230469 C 198.722656 29.050781 174.664062 36.738281 157.457031 52.597656 Z M 177.558594 53.816406 C 197.308594 30.167969 233.25 24.621094 260.871094 36.4375 C 260.75 36.449219 260.59375 36.5 260.476562 36.476562 C 233.035156 31.5 200.222656 37.308594 177.558594 53.816406 Z M 191.527344 58.546875 C 200.640625 47.625 215 41.320312 229.1875 41.308594 C 241.972656 41.292969 254.625 46.253906 264.386719 54.402344 C 241.179688 43.71875 213.082031 44.207031 191.527344 58.546875 Z M 278.65625 91.402344 C 276.320312 89.894531 274.054688 88.269531 271.601562 86.941406 C 264.664062 83.003906 257.09375 79.75 249.40625 77.875 C 252.414062 79.792969 255.617188 81.695312 258.433594 83.996094 C 258.832031 84.402344 260.046875 85.039062 260.074219 85.546875 C 241.328125 77.277344 220.230469 73.394531 199.832031 75.949219 C 208.285156 71.296875 218.535156 68.738281 228.101562 68.730469 C 247.332031 68.699219 265.628906 77.496094 278.796875 91.210938 C 278.824219 91.253906 278.757812 91.453125 278.65625 91.402344 Z M 205.085938 62.679688 C 235.976562 45.6875 273.808594 63.300781 290.125 92.320312 C 269.304688 69.503906 236.261719 54.054688 205.085938 62.679688 Z M 138.578125 158.6875 C 141 151.625 141.328125 144.105469 141.1875 136.699219 C 141.144531 133.800781 141.1875 130.902344 141.113281 128.007812 C 141.074219 126.359375 141.695312 125.0625 142.855469 123.957031 C 143.144531 123.542969 147.039062 120.390625 147.0625 121.503906 C 146.484375 122.335938 145.832031 123.113281 145.238281 123.933594 C 142.90625 127.164062 143.613281 131.351562 143.351562 135.097656 C 142.945312 144.304688 142.539062 160.332031 134.859375 166.394531 C 131.496094 168.847656 127.574219 171.625 123.320312 171.867188 C 123.199219 171.9375 121.113281 171.289062 121.871094 170.808594 C 123.617188 170.707031 125.335938 170.476562 126.921875 169.691406 C 131.722656 167.277344 136.949219 164.144531 138.578125 158.6875 Z M 111.976562 132.664062 C 115.324219 129.753906 119.671875 128.363281 123.734375 126.746094 C 124.886719 126.316406 126.058594 125.953125 127.222656 125.5625 C 127.386719 125.5 127.546875 125.425781 127.707031 125.542969 C 123.589844 128.175781 119.246094 130.699219 115.210938 133.53125 C 111.679688 136.300781 112.5 144.160156 112.601562 148.308594 C 112.976562 153.695312 114.621094 158.816406 116.972656 163.648438 C 117.117188 163.988281 117.4375 164.28125 117.304688 164.710938 C 112.023438 157.855469 109.988281 148.980469 109.863281 140.453125 C 109.773438 137.730469 109.792969 134.636719 111.976562 132.664062 Z M 90.347656 146.164062 C 90.070312 144.082031 96.875 139.371094 98.554688 137.914062 C 99.472656 137.253906 98.859375 138.125 98.5 138.378906 C 96.59375 140.417969 92.320312 143.464844 91.792969 146.148438 C 91.777344 150.824219 91.511719 155.585938 92.253906 160.210938 C 91.871094 162.207031 90.867188 156.625 90.980469 156.226562 C 90.777344 152.875 90.667969 149.511719 90.347656 146.164062 Z M 91.308594 171.332031 C 91.011719 169.597656 91.082031 167.785156 92.292969 166.398438 C 95.351562 162.769531 99.15625 159.851562 102.15625 156.15625 C 103.859375 154.300781 104.957031 152.035156 106.460938 150.042969 C 107.117188 149.246094 107.722656 150.300781 107.894531 150.925781 C 109.632812 157.785156 112.070312 164.335938 116.082031 170.207031 C 116.917969 171.582031 117.867188 173 118.007812 174.644531 C 118.34375 176.769531 116.238281 178.339844 114.3125 178.199219 C 111.21875 178.0625 108.90625 175.6875 105.875 175.25 C 103.644531 174.730469 98.019531 175.328125 100.65625 178.5625 C 101.683594 179.382812 102.925781 179.824219 104.101562 180.375 C 104.554688 180.589844 106.152344 181.53125 105.289062 182.03125 C 99.160156 181.34375 92.246094 178.136719 91.308594 171.332031 Z M 134.609375 231.359375 C 134.496094 231.625 134.566406 232.167969 134.246094 232.257812 C 133.605469 227.710938 132.617188 223.105469 129.941406 219.214844 C 129.808594 219.015625 129.535156 219.070312 129.492188 219.316406 C 129.261719 223.152344 128.105469 226.714844 125.753906 229.789062 C 123.636719 232.640625 120.589844 234.445312 117.246094 235.515625 C 116.832031 235.671875 116.796875 235.144531 116.800781 234.855469 C 116.753906 230.082031 115.519531 225.558594 113.988281 221.089844 C 113.757812 220.730469 113.539062 218.917969 112.957031 219.363281 C 111.207031 221.296875 109.761719 223.480469 108.207031 225.558594 C 108.144531 225.59375 107.960938 225.632812 107.96875 225.492188 C 108.476562 221.480469 109.574219 217.53125 111.355469 213.878906 C 112.085938 212.425781 112.921875 211.027344 113.714844 209.605469 C 113.898438 209.320312 114.273438 208.742188 113.699219 208.671875 C 110.035156 208.632812 106.441406 209.609375 102.792969 209.667969 C 99.574219 209.800781 98.832031 203.640625 101.96875 202.980469 C 109.382812 202.054688 116.425781 205.4375 123.085938 208.230469 C 131.207031 211.066406 134.828125 217.339844 135.101562 225.679688 C 135.046875 227.839844 134.894531 229.601562 134.609375 231.359375 Z M 140.554688 197.121094 C 140.851562 197.046875 141.261719 196.699219 141.53125 196.929688 C 138.667969 200.695312 133.480469 202.460938 128.773438 201.667969 C 127.199219 201.421875 125.644531 201.089844 124.140625 200.5625 C 123.878906 200.421875 123.457031 200.390625 123.359375 200.074219 C 124.050781 199.945312 124.792969 200.160156 125.507812 200.164062 C 130.683594 200.511719 135.847656 199.207031 140.554688 197.121094 Z M 136.871094 195.957031 C 138.433594 195.386719 139.914062 194.652344 141.335938 193.789062 C 142.789062 192.953125 143.957031 191.765625 145.121094 190.582031 C 145.488281 190.238281 145.734375 190.53125 145.5 190.890625 C 143.785156 194.707031 140.65625 196.386719 136.601562 196.640625 C 135.464844 196.515625 136.371094 196.144531 136.871094 195.957031 Z M 213.601562 153.363281 C 213.566406 153.359375 213.492188 153.464844 213.480469 153.523438 C 213.03125 156.558594 212.265625 159.488281 210.734375 162.160156 C 209.851562 163.582031 208.921875 165.257812 207.617188 166.253906 C 207.558594 164.824219 208.085938 163.257812 208.179688 161.78125 C 208.316406 161.390625 208.628906 153.277344 207.6875 155.796875 C 202.527344 172.355469 192.578125 175.785156 180.082031 185.207031 C 168.1875 194.378906 156.402344 203.695312 144.417969 212.753906 C 143.207031 213.660156 143.324219 213.285156 142.855469 212.425781 C 142.019531 210.898438 141.074219 209.441406 139.859375 208.179688 C 139.6875 208.007812 139.394531 207.703125 139.597656 207.464844 C 146.667969 204.476562 152 197.769531 151.398438 189.820312 C 151.429688 188.535156 150.132812 180.964844 149.0625 180.90625 C 148.742188 182.3125 148.480469 183.734375 147.761719 185.019531 C 147.027344 186.519531 145.515625 187.265625 143.980469 187.683594 C 141.042969 188.40625 138.019531 189.464844 135.046875 188.355469 C 130.292969 186.964844 125.605469 185.320312 120.78125 184.183594 C 120.15625 184.023438 120.113281 183.957031 120.074219 183.289062 C 119.621094 180.320312 122.664062 181.332031 122.9375 177.71875 C 123.101562 177.03125 122.582031 175.730469 123.679688 175.804688 C 131.351562 174.75 140.800781 170.554688 144.355469 163.285156 C 148.054688 155.246094 148.980469 146.152344 149.457031 137.710938 C 149.507812 136.964844 149.585938 136.878906 150.292969 136.921875 C 151.773438 137.015625 153.257812 137.109375 154.734375 137.234375 C 156.609375 137.390625 158.484375 137.578125 160.359375 137.75 C 160.554688 137.738281 160.90625 137.8125 160.75 137.484375 C 157.65625 135.1875 154.417969 133.023438 151.078125 131.089844 C 149.972656 130.484375 149.597656 130.257812 150.863281 129.148438 C 151.46875 128.625 152.132812 128.195312 152.917969 127.980469 C 153.769531 127.6875 154.632812 127.894531 155.484375 128.066406 C 172.296875 131.695312 189.203125 135.171875 206.253906 137.492188 C 213.523438 138.53125 220.976562 137.304688 228.207031 137.507812 C 227.980469 138.285156 226.027344 138.574219 225.488281 139.199219 C 230.089844 138.128906 234.25 135.4375 238.5625 133.519531 C 242.050781 132.070312 246.058594 132.648438 249.40625 134.234375 C 256.027344 137.433594 258.445312 145.125 258.621094 152.003906 C 258.097656 164.609375 248.578125 175.183594 239.855469 183.476562 C 235.761719 187.574219 229.542969 189.25 224.042969 187.25 C 221.410156 186.230469 218.46875 184.222656 218.566406 181.097656 C 217.9375 171.789062 217.398438 162.25 213.875 153.5 C 213.835938 153.421875 213.695312 153.378906 213.601562 153.363281 Z M 213.601562 153.363281 " fill-opacity="1" fill-rule="nonzero"/></g><path fill="#202020" d="M 228.175781 173.769531 C 230.597656 173.175781 232.9375 172.265625 235.453125 172.085938 C 240.457031 171.644531 244.238281 167.441406 245.378906 162.730469 C 246.890625 157.699219 241.519531 155.582031 239.535156 151.675781 C 238.855469 150.507812 238.367188 149.277344 238.179688 147.925781 C 237.835938 145.445312 239.417969 143.917969 240.890625 143.1875 C 242.957031 142.085938 245.230469 143.535156 246.636719 145.0625 C 252.132812 151.472656 251.109375 162.675781 246.277344 169.199219 C 245.398438 170.296875 244.402344 171.304688 243.4375 172.332031 C 243.011719 172.886719 242.253906 173.230469 241.988281 173.882812 C 249.316406 170.125 254.449219 161.394531 254.6875 153.183594 C 254.800781 145.542969 250.371094 134.347656 240.953125 137.867188 C 237.257812 139.195312 234.949219 142.5 233.121094 145.792969 C 230.625 151.273438 226.457031 156.722656 226.757812 162.976562 C 227.105469 165.320312 225.820312 167.269531 225.128906 169.410156 C 224.476562 171.71875 225.355469 174.320312 228.175781 173.769531 Z M 228.175781 173.769531 " fill-opacity="1" fill-rule="nonzero"/></svg>