<svg xmlns="http://www.w3.org/2000/svg" xmlns:xlink="http://www.w3.org/1999/xlink" width="500" zoomAndPan="magnify" viewBox="0 0 375 374.999991" height="500" preserveAspectRatio="xMidYMid meet" version="1.0"><defs><clipPath id="042436f0b7"><path d="M 17.269531 3 L 357.722656 3 L 357.722656 343.453125 L 17.269531 343.453125 Z M 17.269531 3 " clip-rule="nonzero"/></clipPath><clipPath id="4cca34f4af"><path d="M 187.496094 3 C 93.484375 3 17.269531 79.214844 17.269531 173.226562 C 17.269531 267.238281 93.484375 343.453125 187.496094 343.453125 C 281.511719 343.453125 357.722656 267.238281 357.722656 173.226562 C 357.722656 79.214844 281.511719 3 187.496094 3 Z M 187.496094 3 " clip-rule="nonzero"/></clipPath><clipPath id="3e77f87694"><path d="M 25.753906 11.484375 L 349.003906 11.484375 L 349.003906 334.734375 L 25.753906 334.734375 Z M 25.753906 11.484375 " clip-rule="nonzero"/></clipPath><clipPath id="c006eb4f92"><path d="M 187.496094 11.484375 C 98.167969 11.484375 25.753906 83.898438 25.753906 173.226562 C 25.753906 262.554688 98.167969 334.96875 187.496094 334.96875 C 276.824219 334.96875 349.238281 262.554688 349.238281 173.226562 C 349.238281 83.898438 276.824219 11.484375 187.496094 11.484375 Z M 187.496094 11.484375 " clip-rule="nonzero"/></clipPath><clipPath id="b2d503d5e7"><path d="M 87.417969 42.457031 L 287.667969 42.457031 L 287.667969 332.707031 L 87.417969 332.707031 Z M 87.417969 42.457031 " clip-rule="nonzero"/></clipPath></defs><g clip-path="url(#042436f0b7)"><g clip-path="url(#4cca34f4af)"><path stroke-linecap="butt" transform="matrix(0.75, 0, 0, 0.75, 17.271011, 3)" fill="none" stroke-linejoin="miter" d="M 226.966792 0.000000262667 C 101.617825 0.000000262667 -0.00197306 101.619799 -0.00197306 226.968765 C -0.00197306 352.317732 101.617825 453.93753 226.966792 453.93753 C 352.320967 453.93753 453.935557 352.317732 453.935557 226.968765 C 453.935557 101.619799 352.320967 0.000000262667 226.966792 0.000000262667 Z M 226.966792 0.000000262667 " stroke="#202020" stroke-width="8" stroke-opacity="1" stroke-miterlimit="4"/></g></g><g clip-path="url(#3e77f87694)"><g clip-path="url(#c006eb4f92)"><path stroke-linecap="butt" transform="matrix(0.75, 0, 0, 0.75, 25.753908, 11.482895)" fill="none" stroke-linejoin="miter" d="M 215.656262 0.00197365 C 96.552087 0.00197365 -0.00000223844 96.554063 -0.00000223844 215.658238 C -0.00000223844 334.762412 96.552087 431.314502 215.656262 431.314502 C 334.760436 431.314502 431.312526 334.762412 431.312526 215.658238 C 431.312526 96.554063 334.760436 0.00197365 215.656262 0.00197365 Z M 215.656262 0.00197365 " stroke="#202020" stroke-width="2" stroke-opacity="1" stroke-miterlimit="4"/></g></g><g clip-path="url(#b2d503d5e7)"><path fill="#202020" d="M 287.148438 248.363281 C 287.027344 248.292969 286.921875 248.199219 286.808594 248.113281 C 281.976562 244.476562 276.890625 238.707031 276.578125 232.417969 C 276.914062 227.601562 276.722656 221.539062 271.960938 218.910156 C 269.160156 217.25 265.914062 216.742188 262.753906 216.222656 C 262.296875 216.136719 262.148438 216.234375 262.007812 216.6875 C 261.867188 216.941406 261.648438 218.757812 261.210938 218.058594 C 260.609375 215.613281 259.800781 213.226562 259.230469 210.769531 C 256.015625 197.253906 257.859375 182.960938 263.125 170.210938 C 267.453125 159.394531 273.027344 148.777344 273.707031 136.929688 C 274.195312 129.433594 273.621094 121.554688 270.609375 114.59375 C 269.160156 111.292969 265.46875 110.4375 262.554688 109.023438 C 262.691406 108.652344 263.769531 108.648438 264.167969 108.554688 C 273.578125 107.929688 281.71875 99.386719 280.773438 89.839844 C 280.46875 89.832031 280.347656 90.164062 280.164062 90.347656 C 278.78125 92.035156 276.910156 93.117188 274.8125 93.617188 C 274.648438 93.65625 274.601562 93.460938 274.644531 93.359375 C 275.398438 91.980469 275.734375 90.484375 275.945312 88.953125 C 276.371094 85.644531 276.492188 82.304688 276.277344 78.976562 C 276.292969 78.820312 276.207031 78.628906 276.042969 78.644531 C 275.089844 79.460938 274.171875 80.316406 273.070312 80.945312 C 272.855469 81.050781 272.574219 81.324219 272.332031 81.210938 C 273.144531 77.746094 272.980469 74.097656 272.359375 70.574219 C 272.257812 70.300781 272.136719 67.980469 271.664062 69.054688 C 270.535156 72.226562 267.84375 77.171875 264.460938 78.15625 C 265.714844 76.863281 267.1875 75.746094 268.007812 74.070312 C 268.441406 73.253906 268.882812 72.441406 269.308594 71.625 C 269.394531 71.46875 269.589844 71.277344 269.375 71.117188 C 267.691406 72.164062 266.003906 73.4375 263.960938 73.804688 C 263.0625 73.925781 260.734375 74.585938 260.039062 74.246094 C 260.363281 73.550781 261.089844 73.097656 261.464844 72.414062 C 262.578125 70.695312 263.113281 68.746094 263.613281 66.789062 C 263.628906 66.726562 263.578125 66.59375 263.539062 66.582031 C 263.179688 66.605469 263 67.054688 262.746094 67.269531 C 261.238281 69.007812 259.351562 70.417969 257.214844 71.261719 C 255.640625 71.871094 254.082031 71.683594 252.550781 71.070312 C 252.035156 70.707031 252.992188 70.515625 253.207031 70.355469 C 254.003906 69.984375 254.707031 69.488281 255.339844 68.882812 C 255.742188 68.648438 258.464844 64.886719 256.648438 66.09375 C 251.289062 69.175781 245.574219 65.976562 240.597656 63.699219 C 238.792969 62.9375 236.996094 62.140625 235.046875 61.804688 C 234.742188 61.75 234.695312 61.601562 234.890625 61.347656 C 237.808594 58.402344 238.898438 53.492188 236.3125 50 C 235.582031 49.003906 234.265625 47.851562 232.996094 47.847656 C 232.871094 47.972656 233.03125 48.089844 233.121094 48.183594 C 234.132812 49.261719 233.894531 50.800781 233.472656 52.078125 C 232.648438 54.464844 230.917969 55.976562 228.640625 56.902344 C 223.171875 58.980469 215.851562 55.835938 210.179688 55 C 207.351562 54.460938 204.503906 53.886719 201.617188 53.875 C 201.464844 53.847656 201.164062 53.914062 201.109375 53.722656 C 204.582031 52.316406 208.679688 52.476562 212.425781 52.347656 C 214.40625 52.292969 216.328125 52.597656 218.238281 53.074219 C 218.648438 53.125 219.085938 53.414062 219.484375 53.265625 C 213.109375 50.089844 205.765625 49.019531 198.707031 48.328125 C 192.570312 47.835938 186.398438 47.378906 180.25 47.933594 C 180.136719 47.917969 179.992188 47.816406 180.140625 47.695312 C 181.925781 46.21875 184.171875 45.660156 186.355469 45.117188 C 186.421875 44.910156 185.925781 44.894531 185.785156 44.855469 C 182.503906 44.519531 179.246094 45.113281 176.023438 45.664062 C 170.589844 46.6875 165.027344 47.398438 159.949219 49.570312 C 160.894531 47.5 163.460938 45.949219 165.371094 44.777344 C 166.753906 44 168.210938 43.453125 169.792969 43.285156 C 170.164062 43.296875 170.214844 43.03125 169.863281 42.898438 C 162.46875 41.289062 155.21875 45.25 148.273438 47.3125 C 147.222656 47.6875 146.164062 48.070312 145.203125 48.664062 C 145.039062 48.738281 144.351562 49.15625 144.433594 48.71875 C 146.035156 46.046875 148.960938 44.109375 151.949219 43.296875 C 152.34375 43.191406 152.769531 43.113281 153.105469 42.867188 C 146.207031 40.847656 138.023438 46.824219 132.769531 50.878906 C 124.84375 57.144531 117.476562 65.898438 118.910156 76.644531 C 118.773438 76.839844 118.671875 76.578125 118.613281 76.460938 C 116.8125 72.527344 116.65625 68.171875 117.1875 63.960938 C 109.710938 78.210938 117.925781 94.6875 127.316406 105.964844 C 127.734375 106.386719 127.375 106.664062 127.066406 107.015625 C 123.328125 111.171875 121.871094 116.683594 121.09375 122.089844 C 120.820312 123.746094 120.539062 125.402344 120.183594 127.042969 C 119.160156 131.238281 116.683594 134.921875 115.75 139.167969 C 115.675781 139.476562 115.335938 140.960938 115.925781 140.015625 C 117.152344 137.683594 118.773438 135.589844 120.273438 133.429688 C 122.746094 130.113281 123.128906 125.871094 123.8125 121.914062 C 124.476562 117.699219 125.523438 113.429688 128.105469 109.9375 C 129.761719 107.410156 132.660156 106.324219 135.058594 104.652344 C 144.0625 97.992188 152.644531 96.058594 163.730469 96.425781 C 163.730469 96.402344 163.730469 96.382812 163.734375 96.359375 C 167.292969 96.484375 170.84375 96.675781 174.371094 97.152344 C 175.8125 97.332031 177.25 97.574219 178.6875 97.789062 C 178.945312 97.804688 179.347656 97.90625 179.230469 98.242188 C 178.726562 100.078125 178.238281 101.917969 177.757812 103.757812 C 177.589844 104.417969 177.433594 104.488281 178.335938 104.46875 C 181.136719 104.40625 183.9375 104.355469 186.734375 104.289062 C 188.109375 104.257812 187.886719 104.269531 187.648438 105.382812 C 186.917969 108.722656 185.332031 111.886719 182.859375 114.277344 C 182.183594 114.945312 181.546875 115.652344 180.894531 116.34375 C 180.550781 116.714844 180.4375 117.160156 180.433594 117.660156 C 180.441406 119.019531 181.039062 120.269531 181.398438 121.554688 C 181.574219 122.421875 182.042969 121.808594 182.433594 121.484375 C 183.148438 121.351562 182.402344 122.285156 182.375 122.722656 C 182.359375 123.085938 181.703125 124.410156 182.457031 124.242188 C 183.421875 123.929688 184.433594 123.832031 185.421875 123.699219 C 185.992188 123.90625 185.144531 124.425781 185.058594 124.75 C 184.804688 125.238281 185.535156 125.207031 185.839844 125.277344 C 188.664062 125.601562 189.597656 128.8125 190.851562 130.929688 C 191.21875 131.398438 191.589844 132.949219 192.273438 132.683594 C 193.582031 132.203125 194.910156 131.757812 196.253906 131.367188 C 213.863281 126.707031 239.359375 129.796875 245.3125 149.972656 C 247.234375 156.957031 246.808594 164.390625 245.601562 171.46875 C 244.335938 178.039062 244.625 184.804688 246.09375 191.316406 C 248.636719 202.75 254.382812 213.078125 260.175781 223.136719 C 260.699219 223.835938 259.289062 224.152344 258.910156 224.570312 C 244.363281 235.371094 229.761719 246.117188 215.726562 257.574219 C 210.9375 261.332031 206.140625 265.464844 200.726562 268.191406 C 212.65625 249.171875 222.953125 226.394531 218.066406 203.503906 C 217.800781 202.273438 217.472656 201.054688 217.171875 199.832031 C 217.101562 199.417969 216.84375 198.894531 217.296875 198.605469 C 226.878906 191.546875 233.347656 180.820312 235.523438 169.15625 C 235.667969 168.398438 235.945312 168.316406 236.421875 168.980469 C 236.808594 169.386719 237.175781 169.808594 237.589844 170.179688 C 239.34375 171.722656 242.042969 171.339844 244.050781 170.550781 C 245.59375 169.753906 245.980469 168.816406 244.914062 167.425781 C 242.75 164.429688 240.5 161.496094 238.285156 158.539062 C 237.722656 157.808594 237.585938 156.902344 237.4375 156.019531 C 236.335938 145.9375 226.003906 138.550781 216.601562 143.910156 C 216.046875 144.230469 215.484375 144.386719 214.835938 144.226562 C 210.203125 143.464844 205.53125 142.851562 200.890625 142.105469 C 183.902344 139.339844 166.890625 136.707031 149.902344 133.929688 C 145.925781 134.085938 142.011719 135.296875 138.078125 135.929688 C 132.769531 137.035156 119.722656 139.910156 117.066406 144.703125 C 116.808594 144.886719 116.558594 144.828125 116.320312 144.648438 C 115.582031 144.226562 114.855469 144.644531 114.210938 145.035156 C 110.597656 147.164062 107.28125 149.675781 104.324219 152.664062 C 103 154.003906 102.757812 154.421875 102.871094 156.484375 C 103.097656 160.734375 103.632812 164.988281 105.011719 169.027344 C 105.160156 169.488281 105.101562 169.800781 104.832031 170.183594 C 101.894531 174.417969 103.148438 181.304688 108.125 183.410156 C 109.214844 183.902344 110.382812 184.34375 111.164062 185.296875 C 111.445312 185.628906 111.421875 185.761719 111.015625 185.882812 C 110.226562 186.121094 109.507812 186.484375 108.835938 186.949219 C 107.765625 187.6875 106.824219 188.558594 106.09375 189.640625 C 105.769531 190.128906 105.335938 190.3125 104.796875 190.179688 C 102.492188 189.695312 101.726562 187.742188 101.78125 185.609375 C 101.691406 185.65625 101.5625 185.679688 101.515625 185.753906 C 100.902344 186.789062 100.296875 187.828125 100.011719 189.019531 C 98.175781 195.492188 105 199.078125 110.125 200.8125 C 110.632812 200.964844 110.367188 201.453125 110.253906 201.808594 C 109.632812 203.71875 110.050781 205.871094 111.261719 207.457031 C 111.535156 207.820312 111.519531 207.902344 111.246094 208.273438 C 108.152344 212.359375 105.90625 217.03125 102.617188 220.984375 C 101.003906 222.90625 99.050781 224.636719 96.625 225.429688 C 95.992188 225.617188 96.046875 225.855469 96.671875 225.921875 C 97.8125 226.035156 98.953125 226.1875 100.101562 226.058594 C 100.269531 226.042969 100.503906 225.90625 100.597656 226.148438 C 100.566406 226.28125 100.144531 226.554688 99.96875 226.640625 C 98.292969 227.628906 97.429688 229.5 96.957031 231.320312 C 96.941406 231.5625 96.6875 232.386719 96.941406 232.492188 C 98.539062 229.660156 101.125 227.367188 104.335938 226.449219 C 104.527344 226.394531 104.636719 226.539062 104.550781 226.714844 C 99.78125 236.886719 87.675781 241.417969 87.777344 253.886719 C 88.160156 253.65625 88.257812 253.152344 88.511719 252.800781 C 89.683594 250.617188 91.382812 248.785156 93.320312 247.253906 C 93.484375 247.152344 94.699219 246.152344 94.574219 246.753906 C 89.367188 256.707031 84.203125 267.082031 90.117188 277.960938 C 89.757812 273.507812 89.113281 268.019531 92.191406 264.316406 C 92.207031 264.300781 92.246094 264.289062 92.261719 264.296875 C 92.371094 264.421875 92.207031 264.617188 92.1875 264.761719 C 91.703125 265.992188 91.359375 267.261719 91.203125 268.574219 C 90.394531 282.28125 100.53125 300.59375 112.339844 307.433594 C 102.6875 292.960938 119.753906 280.703125 132.226562 276.6875 C 129.0625 279.332031 126.269531 282.453125 124.195312 286.066406 C 123.839844 286.667969 123.570312 287.3125 123.265625 287.945312 C 123.246094 287.980469 123.285156 288.042969 123.300781 288.09375 C 127.226562 283.792969 132.5625 281.332031 137.71875 278.785156 C 143.753906 275.714844 148.988281 270.785156 155.492188 268.796875 C 155.21875 269.53125 154.457031 270.027344 154.03125 270.695312 C 152.9375 272.199219 151.511719 273.398438 150.1875 274.664062 C 157.183594 271.734375 164.285156 267.375 168.457031 260.777344 C 169.371094 259.324219 170.039062 257.753906 170.628906 256.148438 C 170.714844 255.972656 170.761719 255.570312 171.03125 255.660156 C 172.9375 259.101562 176.289062 261.320312 179.757812 262.996094 C 180.316406 263.285156 180.484375 263.375 179.847656 263.804688 C 171.875 269.261719 164.734375 275.96875 159.09375 283.828125 C 149.09375 297.398438 142.828125 318.28125 154.777344 332.542969 C 173.402344 288.429688 209.1875 266.273438 247.441406 239.269531 C 253.007812 235.46875 258.292969 231.214844 264.039062 227.695312 C 266.960938 225.890625 271.230469 228.210938 270.601562 231.777344 C 270.433594 232.78125 269.9375 233.609375 269.261719 234.34375 C 259.367188 245.191406 249.445312 256.09375 239.765625 267.09375 C 248.96875 260.703125 258.148438 253.949219 267.300781 247.378906 C 267.472656 247.257812 267.660156 246.957031 267.851562 247.109375 C 268.066406 247.277344 267.792969 247.496094 267.695312 247.675781 C 267.445312 248.113281 267.160156 248.527344 266.917969 248.972656 C 264.914062 252.660156 262.402344 255.980469 259.589844 259.085938 C 243.941406 276 222.441406 285.75 205.53125 301.179688 C 201.546875 304.785156 197.613281 308.46875 194.058594 312.503906 C 194.007812 312.585938 193.878906 312.675781 193.910156 312.773438 C 194.027344 312.828125 194.125 312.636719 194.226562 312.585938 C 205.226562 302.859375 217.207031 294.289062 229.941406 286.976562 C 245.601562 277.695312 262.753906 270.875 277.40625 259.941406 C 281.269531 256.933594 284.84375 253.460938 287.355469 249.230469 C 287.589844 248.851562 287.613281 248.632812 287.148438 248.363281 Z M 121.066406 76.714844 C 121.03125 72.191406 122.519531 67.617188 125.066406 64.003906 C 124.421875 67.820312 124.167969 71.699219 124.277344 75.605469 C 124.207031 80.898438 125.265625 86.265625 126.554688 91.257812 C 122.957031 87.433594 120.972656 81.996094 121.066406 76.714844 Z M 131.363281 87.710938 C 125.640625 80.5 125.613281 69.496094 130.300781 61.652344 C 130.507812 61.429688 131.898438 58.511719 132.019531 59.621094 C 130.847656 63.367188 130.605469 67.300781 130.320312 71.191406 C 129.910156 76.722656 130.1875 82.285156 131.363281 87.710938 Z M 253.816406 94.765625 C 254.601562 95.378906 255.441406 95.703125 256.429688 95.742188 C 260.769531 96.3125 265.085938 96.0625 269.296875 94.851562 C 266.769531 96.507812 263.675781 97.308594 260.703125 97.847656 C 259.875 97.96875 259.03125 98.035156 258.203125 98.148438 C 258.019531 98.191406 257.722656 98.21875 257.679688 98.335938 C 257.59375 98.542969 257.875 98.621094 258.019531 98.746094 C 258.273438 98.964844 258.539062 99.167969 258.785156 99.394531 C 259.492188 100.050781 259.703125 100.441406 259.574219 100.375 C 257.9375 99.410156 256.558594 98.050781 254.554688 97.863281 C 251.769531 97.480469 249.230469 96.386719 246.84375 94.921875 C 240.976562 91.480469 235.832031 86.90625 229.761719 83.804688 C 229.402344 83.660156 228.78125 83.308594 229.574219 83.324219 C 229.578125 83.308594 229.582031 83.292969 229.585938 83.28125 C 238.355469 85.34375 246.695312 89.238281 253.816406 94.765625 Z M 134.28125 80.082031 C 133.710938 82.035156 132.84375 73.871094 133.023438 72.570312 C 132.910156 65.933594 137.640625 57.492188 143.675781 53.851562 C 143.703125 53.882812 143.714844 53.960938 143.695312 53.992188 C 142.65625 55.617188 141.769531 57.335938 140.890625 59.054688 C 137.71875 65.683594 134.933594 72.707031 134.28125 80.082031 Z M 138.277344 78.746094 C 139.054688 66.898438 147.902344 57.160156 159.140625 53.996094 C 159.289062 53.996094 159.757812 53.765625 159.769531 54.019531 C 150.886719 60.605469 143.589844 69.261719 138.328125 78.90625 C 138.3125 78.886719 138.285156 78.785156 138.277344 78.746094 Z M 144.324219 84.039062 C 144.273438 83.9375 144.242188 83.910156 144.277344 83.785156 C 147.519531 67.152344 165.070312 58.148438 180.742188 57.382812 C 166.269531 62.195312 152.785156 71.203125 144.324219 84.039062 Z M 156.910156 83.144531 C 163.3125 70.007812 178.671875 63.417969 192.660156 63.324219 C 197.925781 63.492188 201.992188 63.769531 206.78125 65.066406 C 188.832031 64.929688 170.222656 70.875 156.910156 83.144531 Z M 172.460938 84.085938 C 187.738281 65.792969 215.539062 61.503906 236.90625 70.644531 C 236.8125 70.652344 236.691406 70.691406 236.601562 70.671875 C 215.375 66.824219 189.992188 71.316406 172.460938 84.085938 Z M 183.265625 87.746094 C 190.316406 79.296875 201.421875 74.417969 212.398438 74.410156 C 222.289062 74.398438 232.074219 78.234375 239.625 84.539062 C 221.675781 76.277344 199.9375 76.652344 183.265625 87.746094 Z M 250.667969 113.164062 C 248.859375 111.992188 247.105469 110.738281 245.207031 109.710938 C 239.84375 106.664062 233.984375 104.148438 228.039062 102.699219 C 230.363281 104.183594 232.84375 105.652344 235.023438 107.429688 C 235.328125 107.746094 236.269531 108.238281 236.289062 108.632812 C 221.789062 102.234375 205.472656 99.230469 189.691406 101.207031 C 196.230469 97.609375 204.15625 95.628906 211.558594 95.625 C 226.4375 95.601562 240.585938 102.40625 250.773438 113.011719 C 250.792969 113.046875 250.746094 113.199219 250.667969 113.164062 Z M 193.753906 90.941406 C 217.648438 77.796875 246.914062 91.421875 259.539062 113.871094 C 243.429688 96.222656 217.871094 84.269531 193.753906 90.941406 Z M 142.308594 165.210938 C 144.179688 159.746094 144.433594 153.933594 144.324219 148.199219 C 144.292969 145.957031 144.324219 143.71875 144.265625 141.480469 C 144.238281 140.203125 144.71875 139.199219 145.613281 138.347656 C 145.835938 138.023438 148.851562 135.585938 148.871094 136.449219 C 148.421875 137.089844 147.917969 137.691406 147.457031 138.324219 C 145.65625 140.824219 146.203125 144.066406 146 146.960938 C 145.683594 154.085938 145.367188 166.484375 139.429688 171.171875 C 136.828125 173.070312 133.792969 175.21875 130.503906 175.40625 C 130.410156 175.460938 128.796875 174.960938 129.382812 174.585938 C 130.730469 174.507812 132.0625 174.328125 133.289062 173.722656 C 137.003906 171.855469 141.046875 169.429688 142.308594 165.210938 Z M 121.726562 145.082031 C 124.316406 142.828125 127.683594 141.753906 130.824219 140.5 C 131.714844 140.167969 132.621094 139.886719 133.519531 139.585938 C 133.648438 139.539062 133.773438 139.480469 133.898438 139.574219 C 130.710938 141.609375 127.351562 143.558594 124.230469 145.75 C 121.5 147.894531 122.132812 153.972656 122.210938 157.179688 C 122.503906 161.351562 123.773438 165.3125 125.59375 169.050781 C 125.707031 169.3125 125.953125 169.539062 125.851562 169.871094 C 121.765625 164.566406 120.191406 157.703125 120.09375 151.105469 C 120.023438 149 120.039062 146.605469 121.726562 145.082031 Z M 104.996094 155.523438 C 104.78125 153.910156 110.046875 150.269531 111.347656 149.140625 C 112.054688 148.632812 111.582031 149.304688 111.304688 149.503906 C 109.828125 151.078125 106.523438 153.433594 106.117188 155.511719 C 106.105469 159.128906 105.898438 162.8125 106.472656 166.390625 C 106.175781 167.933594 105.398438 163.617188 105.488281 163.304688 C 105.328125 160.714844 105.246094 158.113281 104.996094 155.523438 Z M 105.738281 174.992188 C 105.511719 173.648438 105.566406 172.25 106.5 171.175781 C 108.867188 168.371094 111.808594 166.113281 114.132812 163.253906 C 115.449219 161.816406 116.296875 160.066406 117.460938 158.523438 C 117.96875 157.90625 118.4375 158.722656 118.570312 159.207031 C 119.917969 164.511719 121.800781 169.582031 124.90625 174.121094 C 125.550781 175.1875 126.285156 176.28125 126.394531 177.554688 C 126.65625 179.199219 125.027344 180.414062 123.535156 180.304688 C 121.144531 180.199219 119.351562 178.363281 117.007812 178.023438 C 115.28125 177.621094 110.933594 178.082031 112.96875 180.585938 C 113.765625 181.222656 114.726562 181.5625 115.636719 181.988281 C 115.988281 182.152344 117.222656 182.882812 116.554688 183.269531 C 111.816406 182.738281 106.464844 180.253906 105.738281 174.992188 Z M 139.234375 221.425781 C 139.148438 221.632812 139.203125 222.050781 138.953125 222.121094 C 138.460938 218.605469 137.695312 215.039062 135.625 212.03125 C 135.523438 211.878906 135.3125 211.921875 135.277344 212.109375 C 135.101562 215.078125 134.203125 217.832031 132.386719 220.210938 C 130.75 222.417969 128.390625 223.8125 125.804688 224.640625 C 125.484375 224.761719 125.457031 224.355469 125.460938 224.132812 C 125.421875 220.441406 124.46875 216.9375 123.285156 213.484375 C 123.105469 213.203125 122.9375 211.804688 122.484375 212.148438 C 121.132812 213.644531 120.015625 215.332031 118.8125 216.9375 C 118.765625 216.96875 118.625 216.996094 118.628906 216.890625 C 119.019531 213.785156 119.871094 210.730469 121.246094 207.90625 C 121.8125 206.78125 122.460938 205.699219 123.074219 204.597656 C 123.214844 204.378906 123.503906 203.929688 123.0625 203.875 C 120.226562 203.847656 117.445312 204.601562 114.625 204.648438 C 112.132812 204.75 111.5625 199.984375 113.984375 199.476562 C 119.722656 198.757812 125.171875 201.375 130.320312 203.535156 C 136.605469 205.730469 139.40625 210.582031 139.617188 217.035156 C 139.574219 218.703125 139.457031 220.066406 139.234375 221.425781 Z M 143.835938 194.941406 C 144.0625 194.882812 144.382812 194.613281 144.589844 194.792969 C 142.378906 197.707031 138.363281 199.074219 134.722656 198.460938 C 133.503906 198.269531 132.304688 198.011719 131.136719 197.601562 C 130.933594 197.496094 130.609375 197.46875 130.535156 197.226562 C 131.066406 197.125 131.644531 197.292969 132.195312 197.296875 C 136.199219 197.566406 140.191406 196.554688 143.835938 194.941406 Z M 140.984375 194.042969 C 142.195312 193.597656 143.339844 193.03125 144.441406 192.363281 C 145.5625 191.71875 146.46875 190.796875 147.367188 189.882812 C 147.652344 189.617188 147.84375 189.84375 147.660156 190.121094 C 146.335938 193.074219 143.914062 194.375 140.777344 194.570312 C 139.898438 194.472656 140.597656 194.1875 140.984375 194.042969 Z M 200.339844 161.09375 C 200.316406 161.089844 200.257812 161.171875 200.25 161.21875 C 199.902344 163.5625 199.308594 165.828125 198.125 167.898438 C 197.441406 168.996094 196.722656 170.292969 195.710938 171.0625 C 195.664062 169.957031 196.074219 168.746094 196.148438 167.601562 C 196.253906 167.300781 196.496094 161.027344 195.765625 162.972656 C 191.773438 175.785156 184.078125 178.4375 174.410156 185.726562 C 165.210938 192.820312 156.09375 200.027344 146.824219 207.035156 C 145.886719 207.734375 145.976562 207.445312 145.613281 206.78125 C 144.96875 205.601562 144.238281 204.472656 143.296875 203.496094 C 143.164062 203.363281 142.9375 203.125 143.09375 202.945312 C 148.5625 200.632812 152.6875 195.441406 152.222656 189.292969 C 152.25 188.300781 151.246094 182.445312 150.417969 182.398438 C 150.167969 183.488281 149.964844 184.585938 149.410156 185.582031 C 148.84375 186.742188 147.671875 187.316406 146.484375 187.640625 C 144.214844 188.199219 141.875 189.019531 139.574219 188.164062 C 135.894531 187.085938 132.269531 185.8125 128.539062 184.933594 C 128.054688 184.808594 128.023438 184.761719 127.992188 184.242188 C 127.640625 181.945312 129.996094 182.730469 130.207031 179.933594 C 130.335938 179.402344 129.933594 178.394531 130.78125 178.453125 C 136.714844 177.636719 144.027344 174.390625 146.773438 168.769531 C 149.636719 162.546875 150.355469 155.515625 150.722656 148.984375 C 150.761719 148.40625 150.824219 148.339844 151.371094 148.375 C 152.511719 148.445312 153.660156 148.519531 154.804688 148.613281 C 156.253906 148.734375 157.707031 148.878906 159.15625 149.011719 C 159.304688 149.003906 159.578125 149.0625 159.460938 148.808594 C 157.0625 147.03125 154.5625 145.359375 151.976562 143.863281 C 151.121094 143.394531 150.832031 143.21875 151.808594 142.363281 C 152.277344 141.957031 152.792969 141.625 153.398438 141.457031 C 154.058594 141.230469 154.726562 141.390625 155.386719 141.523438 C 168.390625 144.332031 181.46875 147.019531 194.660156 148.8125 C 200.28125 149.617188 206.046875 148.667969 211.640625 148.828125 C 211.464844 149.425781 209.953125 149.652344 209.535156 150.136719 C 213.097656 149.308594 216.316406 147.226562 219.652344 145.742188 C 222.351562 144.621094 225.449219 145.066406 228.039062 146.292969 C 233.160156 148.769531 235.03125 154.71875 235.167969 160.039062 C 234.761719 169.792969 227.398438 177.972656 220.652344 184.386719 C 217.484375 187.558594 212.671875 188.855469 208.417969 187.304688 C 206.382812 186.515625 204.105469 184.964844 204.183594 182.546875 C 203.695312 175.34375 203.277344 167.96875 200.550781 161.195312 C 200.523438 161.136719 200.414062 161.105469 200.339844 161.09375 Z M 200.339844 161.09375 " fill-opacity="1" fill-rule="nonzero"/></g><path fill="#202020" d="M 211.617188 176.878906 C 213.488281 176.417969 215.300781 175.714844 217.242188 175.578125 C 221.113281 175.234375 224.039062 171.984375 224.921875 168.335938 C 226.089844 164.445312 221.9375 162.808594 220.402344 159.789062 C 219.875 158.882812 219.5 157.929688 219.351562 156.886719 C 219.089844 154.96875 220.3125 153.785156 221.449219 153.21875 C 223.050781 152.371094 224.808594 153.488281 225.898438 154.667969 C 230.148438 159.628906 229.355469 168.296875 225.621094 173.34375 C 224.941406 174.191406 224.167969 174.972656 223.421875 175.765625 C 223.089844 176.195312 222.507812 176.460938 222.300781 176.964844 C 227.96875 174.058594 231.9375 167.304688 232.125 160.953125 C 232.210938 155.042969 228.785156 146.382812 221.5 149.105469 C 218.640625 150.132812 216.855469 152.6875 215.441406 155.238281 C 213.511719 159.476562 210.285156 163.691406 210.519531 168.527344 C 210.789062 170.34375 209.792969 171.851562 209.257812 173.503906 C 208.753906 175.289062 209.433594 177.304688 211.617188 176.878906 Z M 211.617188 176.878906 " fill-opacity="1" fill-rule="nonzero"/></svg>