<svg xmlns="http://www.w3.org/2000/svg" xmlns:xlink="http://www.w3.org/1999/xlink" width="500" zoomAndPan="magnify" viewBox="0 0 375 374.999991" height="500" preserveAspectRatio="xMidYMid meet" version="1.0"><defs><clipPath id="b119223c0c"><path d="M 149 4 L 350.625 4 L 350.625 374 L 149 374 Z M 149 4 " clip-rule="nonzero"/></clipPath></defs><path fill="#000000" d="M 116.199219 48.285156 C 117.085938 51.304688 118.308594 54.121094 119.804688 56.722656 C 120.296875 57.589844 120.832031 58.4375 121.382812 59.226562 C 122.210938 60.449219 123.117188 61.59375 124.082031 62.65625 C 125.679688 64.453125 127.453125 66.027344 129.347656 67.367188 C 130.804688 68.394531 132.304688 69.242188 133.820312 69.910156 C 134.570312 70.246094 135.339844 70.542969 136.109375 70.800781 C 138.394531 71.546875 140.722656 71.863281 142.988281 71.785156 C 143.363281 71.785156 143.738281 71.746094 144.113281 71.707031 C 145.234375 71.585938 146.359375 71.371094 147.464844 71.054688 C 149.019531 70.582031 150.480469 69.933594 151.859375 69.0625 C 155.644531 66.699219 158.679688 62.914062 160.589844 58.042969 C 160.75 57.628906 160.90625 57.195312 161.066406 56.761719 C 163.351562 50.121094 163.371094 42.394531 161.125 34.863281 C 159.46875 29.34375 156.746094 24.414062 153.238281 20.492188 C 151.640625 18.699219 149.867188 17.121094 147.976562 15.78125 C 145.789062 14.242188 143.519531 13.078125 141.214844 12.351562 C 140.445312 12.113281 139.675781 11.898438 138.90625 11.757812 C 137.765625 11.523438 136.601562 11.402344 135.457031 11.363281 C 134.6875 11.363281 133.941406 11.363281 133.191406 11.464844 C 132.066406 11.582031 130.945312 11.796875 129.859375 12.132812 C 128.300781 12.605469 126.84375 13.257812 125.464844 14.125 C 123.570312 15.308594 121.875 16.84375 120.398438 18.699219 C 119.667969 19.625 118.976562 20.628906 118.367188 21.714844 C 117.753906 22.796875 117.203125 23.941406 116.730469 25.164062 C 115.882812 27.332031 115.273438 29.617188 114.917969 31.984375 C 114.777344 32.929688 114.679688 33.894531 114.601562 34.863281 C 114.5625 35.355469 114.542969 35.828125 114.542969 36.320312 C 114.464844 39.75 114.878906 43.300781 115.785156 46.808594 C 115.921875 47.320312 116.058594 47.8125 116.199219 48.304688 Z M 119.488281 26.207031 C 121.164062 21.949219 123.769531 18.660156 127.019531 16.609375 C 128.164062 15.898438 129.40625 15.328125 130.6875 14.953125 C 135.636719 13.472656 141.15625 14.617188 146.222656 18.203125 C 151.761719 22.109375 156.039062 28.335938 158.246094 35.710938 C 160.296875 42.609375 160.296875 49.746094 158.226562 55.796875 C 158.089844 56.191406 157.949219 56.566406 157.8125 56.941406 C 156.136719 61.179688 153.535156 64.492188 150.28125 66.542969 C 149.136719 67.25 147.898438 67.824219 146.617188 68.195312 C 141.667969 69.675781 136.148438 68.53125 131.082031 64.945312 C 125.542969 61.042969 121.265625 54.8125 119.054688 47.4375 C 116.847656 40.046875 117.007812 32.515625 119.488281 26.207031 Z M 119.488281 26.207031 " fill-opacity="1" fill-rule="nonzero"/><path fill="#000000" d="M 300.335938 366.789062 C 298.523438 361.210938 290.125 343.253906 275.597656 315.359375 C 268.5 301.71875 261.207031 288.195312 254.207031 275.578125 C 253.460938 277.527344 252.691406 279.480469 251.941406 281.472656 C 253.460938 284.152344 254.996094 286.851562 256.554688 289.574219 C 258.269531 292.589844 260.003906 295.625 261.71875 298.660156 C 270.214844 313.644531 278.554688 328.347656 285.296875 340.234375 C 286.441406 342.265625 287.542969 344.199219 288.589844 346.050781 C 290.757812 349.875 292.6875 353.285156 294.324219 356.183594 C 298.050781 362.769531 300.296875 366.710938 300.296875 366.710938 L 300.023438 366.472656 C 300.140625 366.59375 300.238281 366.691406 300.335938 366.808594 Z M 300.335938 366.789062 " fill-opacity="1" fill-rule="nonzero"/><path fill="#000000" d="M 165.617188 178.039062 L 185.175781 209.421875 C 185.585938 208.179688 186 206.957031 186.414062 205.773438 C 173.820312 185.546875 168.160156 176.460938 168.160156 176.460938 C 166.839844 174.332031 165.382812 172.242188 163.804688 170.191406 C 163.3125 169.542969 162.800781 168.910156 162.285156 168.261719 C 161.222656 166.917969 160.097656 165.597656 158.957031 164.296875 C 157.242188 162.347656 155.445312 160.433594 153.59375 158.542969 C 152.371094 157.28125 151.109375 156.058594 149.867188 154.835938 C 149.238281 154.222656 148.605469 153.613281 147.976562 153.023438 C 135.320312 140.996094 121.953125 130.609375 116.535156 121.914062 C 112.945312 116.140625 107.78125 112.789062 102.96875 110.816406 C 101.375 110.164062 99.796875 109.652344 98.339844 109.277344 C 87.121094 113.023438 72.847656 109.730469 61.730469 99.894531 C 60.628906 98.4375 59.601562 96.957031 58.617188 95.441406 C 59.425781 96.328125 60.253906 97.195312 61.140625 98.042969 C 71.824219 108.214844 86.3125 112.253906 98.003906 108.332031 C 98.179688 108.273438 98.378906 108.273438 98.574219 108.332031 C 104.390625 109.871094 112.355469 113.378906 117.359375 121.421875 C 121.105469 127.414062 128.675781 134.234375 137.449219 142.101562 C 146.242188 149.984375 155.960938 158.71875 163.527344 168.300781 C 164.929688 170.074219 166.269531 171.867188 167.492188 173.699219 C 168.003906 174.449219 168.476562 175.199219 168.949219 175.96875 L 186.769531 204.589844 C 190.101562 194.734375 192.566406 187.183594 192.824219 185.746094 C 192.941406 184.820312 192.527344 182.355469 192.171875 180.1875 C 191.757812 177.683594 191.246094 174.707031 191.007812 171.355469 L 187.5 165.71875 L 187.085938 165.046875 L 172.792969 172.5 L 169.996094 173.957031 L 185.175781 162.820312 C 181.722656 159.703125 174.667969 155.878906 166.703125 151.582031 L 166.40625 151.425781 C 166.171875 151.289062 165.933594 151.167969 165.675781 151.03125 C 164.691406 150.5 163.6875 149.945312 162.660156 149.394531 C 146.792969 140.78125 126.941406 129.347656 117.816406 114.679688 C 115.273438 110.601562 113.0625 105.058594 111.269531 98.238281 C 111.210938 97.984375 111.25 97.726562 111.367188 97.492188 C 114.363281 92.304688 115.449219 85.996094 114.464844 79.296875 C 113.320312 71.410156 109.457031 63.722656 103.503906 57.375 C 99.027344 52.011719 93.152344 47.597656 86.410156 44.914062 C 89.605469 46.039062 92.777344 47.597656 95.796875 49.589844 C 96.703125 50.179688 97.589844 50.808594 98.457031 51.480469 C 99.777344 52.484375 101.039062 53.570312 102.28125 54.753906 C 108.570312 60.726562 112.925781 68.117188 114.777344 75.84375 C 115.035156 76.949219 115.25 78.054688 115.410156 79.175781 C 115.527344 80.042969 115.625 80.910156 115.6875 81.777344 C 115.804688 83.496094 115.785156 85.167969 115.644531 86.804688 C 115.507812 88.441406 115.230469 90.019531 114.839844 91.558594 C 114.246094 93.84375 113.359375 96.03125 112.195312 98.023438 C 112.53125 99.34375 112.925781 100.703125 113.378906 102.101562 C 114.679688 106.28125 116.414062 110.621094 118.621094 114.1875 C 125.011719 124.457031 136.621094 133.050781 148.566406 140.289062 C 150.398438 141.410156 152.253906 142.496094 154.085938 143.539062 C 156.984375 145.195312 159.84375 146.773438 162.601562 148.269531 C 163.628906 148.824219 164.632812 149.375 165.617188 149.90625 C 165.953125 150.085938 166.289062 150.261719 166.625 150.460938 C 168.554688 151.503906 170.429688 152.507812 172.203125 153.476562 C 174.527344 154.757812 176.675781 155.960938 178.609375 157.101562 C 181.785156 158.996094 184.367188 160.730469 186.0625 162.347656 C 186.769531 163.015625 187.324219 163.648438 187.71875 164.277344 C 187.71875 164.277344 188.722656 165.894531 190.851562 169.304688 C 190.773438 167.292969 190.792969 165.164062 190.96875 162.917969 L 190.773438 162.601562 C 183.359375 150.339844 179.0625 134.3125 175.277344 120.179688 C 172.144531 108.492188 169.441406 98.398438 165.5 91.871094 C 161.519531 85.269531 161.675781 78.113281 162.640625 72.988281 C 165.636719 69.890625 168.023438 66.109375 169.738281 61.730469 C 173.285156 52.722656 173.5625 42.195312 170.527344 32.0625 C 167.492188 21.929688 161.480469 13.277344 153.574219 7.71875 C 145.195312 1.804688 135.734375 0.03125 126.902344 2.652344 C 124.496094 3.359375 122.210938 4.40625 120.082031 5.726562 C 114.484375 9.214844 110.085938 14.675781 107.386719 21.515625 C 107.167969 22.070312 106.953125 22.640625 106.753906 23.210938 C 103.820312 31.789062 103.757812 41.722656 106.578125 51.183594 C 107.289062 53.550781 108.15625 55.816406 109.160156 57.984375 C 107.683594 56.113281 106.046875 54.320312 104.273438 52.625 C 90.433594 39.457031 70.660156 35.964844 57.257812 44.324219 C 55.976562 45.113281 54.773438 46.019531 53.648438 47.003906 C 35.257812 31.847656 35.789062 27.921875 34.941406 27.15625 C 34.015625 26.308594 32.417969 25.992188 28.417969 30.425781 C 24.394531 34.863281 24.867188 36.398438 25.792969 37.246094 C 26.640625 38.015625 30.546875 37.089844 47.734375 54.300781 C 40.085938 67.921875 44.109375 87.476562 58.28125 100.980469 C 69.753906 111.902344 85.347656 116.335938 98.257812 112.453125 C 103.285156 113.910156 109.773438 116.988281 113.871094 123.570312 C 117.914062 130.054688 125.679688 137.035156 134.6875 145.097656 C 145.570312 154.875 157.910156 165.953125 165.5 178.117188 Z M 121.226562 112.570312 C 119.054688 109.101562 117.085938 104.210938 115.46875 98.359375 C 118.464844 92.621094 119.488281 85.859375 118.445312 78.703125 C 117.875 74.800781 116.710938 70.957031 115.015625 67.25 C 117.539062 70.425781 120.4375 73.203125 123.648438 75.472656 C 129.542969 79.628906 136.050781 81.777344 142.515625 81.699219 C 146.988281 85.800781 150.460938 89.78125 152.570312 93.273438 C 160.632812 106.597656 162.050781 127.554688 162.582031 144.761719 C 147.484375 136.503906 129.464844 125.757812 121.226562 112.53125 Z M 167.765625 32.871094 C 168.300781 34.644531 168.714844 36.4375 169.046875 38.234375 C 169.265625 39.4375 169.421875 40.617188 169.542969 41.820312 C 169.9375 46 169.757812 50.121094 168.96875 54.0625 C 168.753906 55.1875 168.476562 56.289062 168.160156 57.375 C 167.847656 58.457031 167.472656 59.523438 167.058594 60.566406 C 166.839844 61.101562 166.625 61.632812 166.386719 62.164062 C 165.675781 63.722656 164.890625 65.179688 164.003906 66.542969 C 162.820312 68.375 161.480469 70.011719 160 71.449219 C 159.683594 72.910156 159.429688 74.542969 159.289062 76.257812 C 159.210938 77.128906 159.191406 78.015625 159.171875 78.921875 C 159.171875 82.09375 159.644531 85.523438 160.925781 88.953125 C 161.480469 90.414062 162.167969 91.890625 163.054688 93.332031 C 164.910156 96.386719 166.503906 100.425781 168.023438 105.078125 C 168.675781 107.070312 169.304688 109.199219 169.9375 111.386719 C 170.980469 115.054688 172.023438 118.976562 173.109375 123.039062 C 173.328125 123.847656 173.542969 124.675781 173.761719 125.484375 C 174.214844 127.117188 174.667969 128.773438 175.121094 130.429688 C 175.355469 131.257812 175.59375 132.105469 175.828125 132.933594 C 176.324219 134.609375 176.816406 136.285156 177.328125 137.960938 C 178.371094 141.3125 179.476562 144.644531 180.699219 147.917969 C 181.921875 151.148438 183.242188 154.304688 184.699219 157.339844 C 184.1875 156.984375 183.675781 156.628906 183.125 156.273438 C 178 145.175781 174.609375 132.539062 171.550781 121.125 C 168.496094 109.730469 165.875 99.894531 162.207031 93.84375 C 157.320312 85.761719 157.792969 77.085938 159.035156 71.234375 C 159.074219 71.035156 159.171875 70.878906 159.308594 70.738281 C 162.207031 67.921875 164.515625 64.371094 166.152344 60.214844 C 169.363281 52.050781 169.621094 42.433594 166.839844 33.148438 C 166.40625 31.6875 165.894531 30.25 165.324219 28.871094 C 164.613281 26.445312 163.726562 24.078125 162.621094 21.753906 C 162.386719 21.261719 162.128906 20.789062 161.875 20.292969 C 164.417969 24.039062 166.425781 28.277344 167.785156 32.851562 Z M 115.804688 24.75 C 117.792969 19.722656 120.949219 15.742188 124.929688 13.257812 C 126.371094 12.351562 127.945312 11.660156 129.5625 11.167969 C 135.714844 9.335938 142.4375 10.675781 148.527344 14.972656 C 154.796875 19.386719 159.605469 26.347656 162.070312 34.585938 C 164.355469 42.273438 164.335938 50.257812 162.011719 57.097656 C 161.851562 57.550781 161.695312 58.003906 161.519531 58.417969 C 159.527344 63.464844 156.375 67.429688 152.390625 69.910156 C 150.953125 70.820312 149.394531 71.527344 147.757812 72 C 141.609375 73.835938 134.886719 72.496094 128.792969 68.195312 C 122.527344 63.78125 117.714844 56.804688 115.25 48.582031 C 112.789062 40.34375 112.984375 31.886719 115.804688 24.75 Z M 110.5 50 C 113.28125 59.285156 118.761719 67.191406 125.9375 72.257812 C 131.476562 76.160156 137.585938 78.054688 143.558594 77.738281 C 143.816406 77.738281 144.074219 77.816406 144.269531 77.996094 C 149.53125 82.6875 153.476562 87.160156 155.960938 91.261719 C 164.910156 106.066406 166.113281 128.953125 166.605469 146.988281 C 166.269531 146.8125 165.933594 146.636719 165.597656 146.4375 C 165.085938 128.28125 163.84375 106.203125 155.113281 91.753906 C 154.382812 90.570312 153.554688 89.367188 152.667969 88.207031 C 151.78125 87.042969 150.8125 85.898438 149.808594 84.796875 C 149.296875 84.242188 148.804688 83.691406 148.269531 83.160156 C 147.246094 82.09375 146.203125 81.070312 145.15625 80.105469 C 144.644531 79.609375 144.132812 79.15625 143.617188 78.703125 C 142.082031 78.800781 140.523438 78.722656 138.964844 78.546875 C 138.199219 78.449219 137.410156 78.308594 136.640625 78.152344 C 135.101562 77.816406 133.566406 77.34375 132.027344 76.734375 C 129.742188 75.804688 127.511719 74.585938 125.34375 73.066406 C 118.503906 68.238281 113.164062 60.902344 110.164062 52.230469 C 110.1875 52.289062 110.207031 52.347656 110.246094 52.40625 C 109.96875 50.476562 109.753906 48.5625 109.632812 46.652344 C 109.871094 47.773438 110.164062 48.878906 110.5 50 Z M 58.398438 54.871094 C 59.503906 53.707031 60.765625 52.683594 62.144531 51.816406 C 72.121094 45.605469 87.300781 48.640625 98.238281 59.050781 C 104.46875 64.964844 108.492188 72.414062 109.59375 80.003906 C 110.660156 87.378906 108.824219 94 104.390625 98.632812 C 103.285156 99.796875 102.023438 100.820312 100.644531 101.6875 C 90.667969 107.898438 75.492188 104.863281 64.550781 94.453125 C 51.875 82.390625 49.09375 64.628906 58.378906 54.871094 Z M 58.398438 54.871094 " fill-opacity="1" fill-rule="nonzero"/><path fill="#000000" d="M 298.308594 351.925781 C 293.988281 342.660156 287.542969 329.75 280.210938 315.613281 C 272.1875 300.179688 263.945312 284.863281 256.082031 270.769531 C 255.628906 271.96875 255.15625 273.171875 254.683594 274.394531 C 259.019531 282.203125 263.355469 290.164062 267.535156 297.972656 C 268.460938 299.726562 269.386719 301.460938 270.3125 303.195312 C 270.375 303.332031 270.453125 303.453125 270.511719 303.589844 C 271.910156 306.230469 273.289062 308.851562 274.652344 311.457031 C 274.710938 311.59375 274.789062 311.730469 274.867188 311.871094 C 276.207031 314.433594 277.527344 316.976562 278.832031 319.457031 C 278.910156 319.597656 278.96875 319.734375 279.046875 319.871094 C 279.875 321.46875 280.683594 323.046875 281.492188 324.605469 C 282.003906 325.589844 282.496094 326.574219 282.988281 327.542969 C 283.757812 329.058594 284.507812 330.558594 285.257812 332.015625 C 285.335938 332.152344 285.394531 332.3125 285.472656 332.449219 C 295.507812 352.359375 302.191406 366.96875 301.699219 368.683594 C 301.699219 368.742188 301.636719 368.800781 301.597656 368.820312 C 301.285156 369.015625 300.21875 368.128906 298.542969 366.335938 C 298.011719 365.765625 297.398438 365.09375 296.730469 364.34375 C 294.128906 361.40625 290.636719 357.109375 286.480469 351.847656 C 280.210938 343.882812 272.464844 333.632812 264.144531 322.316406 C 262.527344 320.109375 260.890625 317.863281 259.234375 315.59375 C 254.859375 309.582031 250.382812 303.351562 245.929688 297.046875 C 245.277344 298.699219 244.648438 300.355469 243.996094 301.992188 C 249.695312 310.253906 255.628906 318.671875 261.621094 327.046875 C 270.90625 340 279.5 351.570312 285.808594 359.632812 C 289.082031 363.8125 291.722656 367.027344 293.65625 369.175781 C 295.921875 371.71875 298.285156 374.339844 300.890625 372.761719 C 300.890625 372.761719 300.890625 372.742188 300.890625 372.742188 C 301.304688 372.488281 301.617188 372.171875 301.855469 371.835938 C 302.269531 371.777344 302.703125 371.640625 303.136719 371.363281 C 305.738281 369.746094 304.457031 366.453125 303.234375 363.28125 C 302.191406 360.582031 300.515625 356.777344 298.265625 351.964844 Z M 298.308594 351.925781 " fill-opacity="1" fill-rule="nonzero"/><path fill="#000000" d="M 65.238281 93.707031 C 76.042969 103.996094 90.691406 106.695312 100.132812 100.820312 C 101.414062 100.015625 102.617188 99.046875 103.679688 97.925781 C 104.46875 97.097656 105.179688 96.1875 105.789062 95.242188 C 106.597656 93.960938 107.269531 92.601562 107.761719 91.125 C 108.390625 89.289062 108.746094 87.320312 108.863281 85.25 C 108.945312 83.59375 108.863281 81.878906 108.609375 80.105469 C 108.550781 79.648438 108.46875 79.175781 108.371094 78.722656 C 108.195312 77.816406 107.976562 76.890625 107.703125 75.984375 C 107.445312 75.078125 107.128906 74.171875 106.773438 73.261719 C 105.90625 71.035156 104.785156 68.847656 103.425781 66.757812 C 102.871094 65.929688 102.300781 65.101562 101.667969 64.292969 C 101.355469 63.898438 101.039062 63.484375 100.722656 63.089844 C 100.074219 62.304688 99.382812 61.554688 98.652344 60.804688 C 98.296875 60.429688 97.925781 60.074219 97.550781 59.699219 C 95.183594 57.453125 92.640625 55.5625 90 54.042969 C 89.25 53.609375 88.480469 53.214844 87.710938 52.839844 C 87.339844 52.644531 86.945312 52.484375 86.570312 52.308594 C 85.800781 51.972656 85.03125 51.65625 84.242188 51.382812 C 81.523438 50.414062 78.78125 49.804688 76.121094 49.609375 C 75.351562 49.546875 74.605469 49.527344 73.855469 49.527344 C 72.355469 49.527344 70.898438 49.6875 69.496094 49.941406 C 68.097656 50.21875 66.738281 50.613281 65.4375 51.144531 C 64.472656 51.539062 63.542969 52.03125 62.65625 52.566406 C 61.375 53.371094 60.171875 54.339844 59.109375 55.460938 C 50.199219 64.824219 52.9375 81.957031 65.238281 93.644531 Z M 61.277344 57.570312 C 62.164062 56.644531 63.152344 55.835938 64.253906 55.167969 C 72.710938 49.882812 85.859375 52.722656 95.519531 61.910156 C 101.097656 67.210938 104.707031 73.835938 105.691406 80.558594 C 106.578125 86.707031 105.121094 92.148438 101.550781 95.894531 C 100.683594 96.820312 99.679688 97.628906 98.574219 98.320312 C 90.117188 103.601562 76.96875 100.761719 67.308594 91.578125 C 56.210938 81.011719 53.511719 65.773438 61.296875 57.609375 Z M 61.277344 57.570312 " fill-opacity="1" fill-rule="nonzero"/><path fill="#000000" d="M 250.128906 286.164062 C 252.554688 290.402344 255.015625 294.640625 257.5 298.859375 C 259.175781 301.699219 260.890625 304.535156 262.605469 307.355469 C 263.789062 309.304688 264.992188 311.277344 266.214844 313.230469 C 272.128906 322.828125 278.296875 332.253906 284.644531 341.578125 L 267.535156 312.441406 C 265.742188 309.367188 263.964844 306.289062 262.171875 303.214844 C 260.457031 300.238281 258.742188 297.261719 257.027344 294.285156 C 255.015625 290.796875 253.027344 287.308594 251.035156 283.796875 C 250.71875 284.585938 250.425781 285.375 250.109375 286.183594 Z M 250.128906 286.164062 " fill-opacity="1" fill-rule="nonzero"/><g clip-path="url(#b119223c0c)"><path fill="#000000" d="M 348.929688 40.085938 L 347.492188 39.554688 L 347.472656 39.554688 C 346.367188 39.140625 345.164062 39.710938 344.769531 40.816406 L 343.390625 44.601562 L 343.488281 38.746094 L 339.78125 43.300781 L 339.882812 37.445312 L 336.175781 42 L 336.273438 36.144531 L 332.566406 40.699219 L 332.667969 34.84375 L 328.960938 39.394531 L 329.058594 33.542969 L 325.351562 38.09375 L 325.453125 32.242188 L 321.746094 36.792969 L 321.84375 30.9375 L 318.136719 35.492188 L 318.238281 29.617188 L 314.53125 34.171875 L 314.628906 28.296875 L 310.921875 32.851562 L 311.023438 26.976562 L 307.316406 31.53125 L 307.414062 25.65625 L 303.707031 30.210938 L 303.808594 24.335938 L 300.101562 28.890625 L 300.199219 23.015625 L 296.492188 27.570312 L 296.589844 21.695312 L 292.886719 26.246094 L 292.984375 20.375 L 289.277344 24.925781 L 289.375 19.070312 L 285.671875 23.625 L 285.769531 17.769531 L 282.0625 22.324219 L 282.160156 16.46875 L 278.457031 21.023438 L 278.554688 15.167969 L 274.847656 19.722656 L 274.945312 13.867188 L 271.242188 18.421875 L 271.339844 12.566406 L 267.632812 17.121094 L 267.730469 11.265625 L 264.027344 15.820312 L 264.125 9.945312 L 260.417969 14.5 L 260.515625 8.625 L 256.8125 13.179688 L 256.910156 7.304688 L 253.203125 11.855469 L 254.582031 8.074219 C 254.976562 6.96875 254.425781 5.765625 253.320312 5.371094 L 253.300781 5.371094 C 253.300781 5.371094 251.863281 4.839844 251.863281 4.839844 C 250.777344 4.445312 249.554688 4.996094 249.164062 6.101562 L 245.0625 17.355469 L 249.121094 18.835938 L 236.25 54.160156 C 230.886719 60.171875 227.890625 67.113281 225.980469 72.316406 L 218.46875 92.898438 L 218.152344 92.796875 C 211.175781 96.40625 203.941406 119.214844 200.570312 129.800781 C 199.011719 134.667969 200.097656 137.371094 201.714844 138.847656 L 197.21875 151.167969 C 192.882812 163.054688 194.578125 173.089844 195.679688 179.734375 C 196.152344 182.511719 196.546875 184.917969 196.351562 186.375 C 195.898438 189.273438 186.476562 216.695312 178.15625 240.902344 C 168.851562 267.96875 158.324219 298.621094 154.421875 311.808594 C 149.691406 327.757812 146.300781 347.609375 156.984375 351.511719 L 157.695312 351.769531 C 158.503906 360.582031 164.238281 368.582031 173.128906 371.816406 C 182 375.050781 191.542969 372.625 197.847656 366.394531 L 198.539062 366.652344 C 204.433594 368.800781 213.996094 365.566406 226.058594 337.910156 C 226.335938 337.257812 226.648438 336.550781 226.964844 335.800781 L 228.304688 336.984375 C 230.101562 338.582031 232.289062 338.1875 233.195312 336.078125 L 237.335938 326.496094 C 238.242188 324.40625 237.511719 321.410156 235.71875 319.8125 L 234.0625 318.335938 C 239.796875 303.90625 246.933594 285.394531 253.519531 268.34375 C 262.726562 244.46875 273.171875 217.40625 274.691406 214.902344 C 275.460938 213.660156 277.3125 212.082031 279.460938 210.25 C 284.585938 205.890625 292.332031 199.289062 296.671875 187.402344 L 301.164062 175.0625 C 303.351562 174.960938 305.914062 173.601562 307.867188 168.871094 C 312.105469 158.601562 321.234375 136.503906 318.21875 129.25 L 317.921875 129.128906 L 325.433594 108.550781 C 327.34375 103.324219 329.511719 96.089844 329.257812 88.046875 L 342.128906 52.722656 L 346.191406 54.199219 L 350.289062 42.945312 C 350.683594 41.859375 350.132812 40.636719 349.027344 40.242188 Z M 189.824219 366.257812 C 185.273438 368.742188 179.535156 369.136719 174.589844 367.300781 C 169.621094 365.527344 165.480469 361.527344 163.589844 356.695312 C 163.15625 355.652344 162.859375 354.546875 162.640625 353.445312 L 165.933594 354.644531 C 166.070312 354.902344 166.171875 355.179688 166.308594 355.433594 C 168.4375 359.296875 171.867188 362.234375 175.910156 363.714844 C 179.929688 365.191406 184.464844 365.152344 188.585938 363.558594 C 188.859375 363.4375 189.117188 363.320312 189.390625 363.203125 L 192.664062 364.382812 C 191.796875 365.09375 190.851562 365.726562 189.847656 366.257812 Z M 322.101562 107.230469 L 321.546875 108.726562 C 316.441406 122.742188 299.054688 170.449219 293.339844 186.101562 C 290.578125 193.671875 286.398438 198.855469 282.378906 202.796875 C 282.121094 203.113281 281.847656 203.449219 281.53125 203.800781 C 280.527344 204.867188 279.382812 206.167969 277.964844 207.351562 C 276.542969 208.515625 274.984375 209.757812 273.371094 210.859375 C 271.753906 211.886719 270.078125 212.832031 268.480469 213.660156 C 268.183594 213.875 267.910156 214.09375 267.632812 214.289062 C 267.671875 214.191406 267.710938 214.113281 267.769531 214.015625 C 266.351562 214.703125 264.933594 215.214844 263.730469 215.691406 C 262.351562 216.222656 261.148438 216.476562 260.320312 216.695312 C 259.472656 216.871094 259 216.972656 259 216.972656 C 259 216.972656 259.414062 216.734375 260.164062 216.300781 C 260.910156 215.90625 261.9375 215.234375 263.199219 214.546875 C 264.460938 213.855469 265.878906 212.929688 267.417969 212.003906 C 268.125 211.589844 268.855469 211.136719 269.585938 210.664062 C 270.90625 208.867188 272.816406 207.234375 275.203125 205.222656 C 280.132812 201.0625 286.894531 195.367188 290.636719 185.09375 L 321.292969 101.019531 C 324.25 92.917969 324.070312 69.871094 301.105469 57.730469 C 298.78125 64.886719 296.613281 71.804688 294.601562 78.507812 C 298.464844 80.617188 301.71875 82.746094 304.457031 84.714844 C 305.757812 85.703125 306.960938 86.648438 308.085938 87.535156 C 309.1875 88.421875 310.15625 89.328125 311.0625 90.136719 C 312.875 91.753906 314.292969 93.253906 315.457031 94.535156 C 317.804688 97.078125 318.964844 98.890625 319.675781 99.972656 C 320.367188 101.058594 320.523438 101.492188 320.523438 101.492188 C 299.195312 78.289062 265.25 65.910156 233.984375 69.953125 C 233.984375 69.953125 234.417969 70.089844 235.699219 70.226562 C 236.980469 70.40625 239.089844 70.464844 242.460938 70.757812 C 244.136719 70.878906 246.125 71.035156 248.453125 71.253906 C 248.769531 71.292969 249.121094 71.332031 249.457031 71.351562 C 236.25 108.824219 226.769531 138.671875 222.628906 159.566406 C 223.457031 159.703125 224.304688 159.863281 225.210938 160 C 227.890625 160.511719 230.90625 161.164062 234.21875 162.03125 C 236.882812 146.65625 243.167969 121.640625 259.726562 72.769531 C 265.347656 73.777344 272.109375 75.3125 280.011719 78.152344 C 284.980469 79.984375 289.277344 81.9375 293.003906 83.828125 C 282.140625 120.554688 275.378906 150.519531 267.515625 175.082031 C 268.125 175.414062 268.71875 175.730469 269.269531 176.046875 C 270.589844 176.816406 271.8125 177.546875 272.957031 178.214844 C 274.097656 178.90625 275.105469 179.59375 276.070312 180.207031 C 277.984375 181.429688 279.539062 182.589844 280.839844 183.558594 C 283.441406 185.488281 284.921875 186.929688 285.789062 187.777344 C 286.65625 188.644531 286.914062 189 286.914062 189 C 261.996094 172.460938 233.136719 161.933594 203.410156 158.5625 C 203.410156 158.5625 203.78125 158.777344 204.945312 159.191406 C 206.109375 159.625 208.039062 160.136719 211.136719 161.003906 C 212.671875 161.417969 214.507812 161.894531 216.675781 162.484375 C 217.757812 162.761719 218.921875 163.074219 220.164062 163.410156 C 220.714844 163.570312 221.269531 163.707031 221.859375 163.863281 C 220.835938 169.894531 220.300781 175.0625 220.363281 179.339844 C 220.519531 193.355469 214.664062 216.636719 201.910156 238.714844 C 207.191406 219.886719 207.234375 215.589844 207.234375 215.589844 L 171.257812 326.613281 C 171.257812 326.613281 175.75 320.304688 189.097656 280.03125 C 199.070312 267.871094 208.414062 253.066406 215.433594 236.839844 C 216.261719 239.03125 217.996094 240.882812 220.363281 241.75 C 224.679688 243.328125 229.46875 241.078125 231.046875 236.78125 C 232.621094 232.464844 230.394531 227.675781 226.078125 226.097656 C 223.929688 225.308594 221.664062 225.46875 219.730469 226.355469 C 234.476562 189.3125 230.453125 188.03125 233.410156 167.195312 C 237.175781 168.359375 241.355469 169.71875 246.007812 171.394531 C 254.289062 174.449219 260.792969 177.269531 266.015625 179.632812 C 265.269531 181.882812 264.5 184.089844 263.710938 186.257812 C 259.984375 196.488281 254.367188 212.238281 247.113281 230.121094 C 247.113281 230.121094 203.191406 338.226562 203.191406 338.226562 C 203.191406 338.226562 203.882812 329.492188 222.707031 283.167969 C 222.785156 282.949219 222.886719 282.753906 222.964844 282.535156 C 208.238281 310.195312 190.535156 335.664062 170.644531 348.277344 L 178.945312 351.316406 L 194.183594 356.875 C 195.089844 358.292969 196.449219 359.4375 198.144531 360.046875 C 202.285156 361.566406 206.859375 359.417969 208.375 355.277344 C 208.988281 353.621094 208.988281 351.886719 208.535156 350.308594 C 211.351562 346.109375 214.09375 340.75 216.4375 335.425781 C 220.28125 326.632812 228.640625 306.605469 237.492188 285.394531 C 250.738281 253.65625 260.675781 229.921875 265.722656 218.507812 C 266.332031 218.234375 266.921875 217.9375 267.515625 217.640625 C 268.402344 217.1875 269.269531 216.714844 270.117188 216.222656 C 262.488281 234.023438 232.761719 313.523438 222.804688 336.3125 C 211.925781 361.289062 203.800781 364.71875 199.605469 363.203125 C 195.40625 361.664062 178.828125 355.632812 178.828125 355.632812 C 178.828125 355.632812 162.265625 349.601562 158.046875 348.0625 C 153.851562 346.523438 149.847656 338.679688 157.59375 312.558594 C 164.632812 288.824219 192.863281 209.34375 198.617188 190.417969 C 198.933594 191.265625 199.25 192.09375 199.605469 192.921875 C 200.765625 195.621094 202.128906 198.28125 204 200.628906 C 203.449219 197.691406 202.796875 194.890625 202.148438 192.074219 C 201.515625 189.273438 200.824219 186.496094 200.15625 183.714844 L 198.894531 178.570312 C 197.789062 171.945312 196.371094 162.957031 200.332031 152.113281 C 206.03125 136.484375 223.417969 88.777344 228.542969 74.761719 L 229.09375 73.261719 C 233.371094 61.535156 245.75 33.304688 290.421875 49.589844 C 335.089844 65.871094 326.398438 95.441406 322.121094 107.1875 Z M 225.191406 228.523438 C 228.1875 229.605469 229.726562 232.9375 228.640625 235.914062 C 227.558594 238.910156 224.246094 240.449219 221.25 239.363281 C 218.253906 238.28125 216.714844 234.96875 217.800781 231.972656 C 218.882812 228.976562 222.214844 227.4375 225.191406 228.523438 Z M 205.953125 354.46875 C 204.925781 357.269531 201.8125 358.726562 199.011719 357.703125 C 196.214844 356.675781 194.753906 353.5625 195.78125 350.761719 C 196.804688 347.964844 199.917969 346.503906 202.71875 347.53125 C 205.519531 348.554688 206.976562 351.667969 205.953125 354.46875 Z M 309.898438 51.578125 C 303.925781 49.507812 297.972656 47.339844 292.019531 45.210938 C 286.085938 43.003906 280.152344 40.835938 274.238281 38.566406 L 265.386719 35.136719 C 262.449219 33.957031 259.492188 32.8125 256.574219 31.589844 C 259.589844 32.535156 262.585938 33.5625 265.601562 34.546875 L 274.574219 37.621094 C 280.546875 39.691406 286.5 41.859375 292.453125 43.988281 C 298.386719 46.199219 304.320312 48.367188 310.234375 50.632812 C 316.148438 52.898438 322.042969 55.1875 327.894531 57.589844 C 321.863281 55.679688 315.871094 53.628906 309.898438 51.558594 Z M 313.878906 49.84375 C 306.921875 47.417969 299.980469 44.875 293.023438 42.394531 C 286.105469 39.808594 279.164062 37.285156 272.265625 34.664062 L 261.9375 30.703125 C 258.507812 29.34375 255.054688 28.023438 251.644531 26.621094 C 255.15625 27.746094 258.644531 28.949219 262.152344 30.132812 L 272.621094 33.757812 C 279.578125 36.183594 286.519531 38.726562 293.476562 41.210938 C 300.394531 43.792969 307.335938 46.316406 314.234375 48.9375 C 321.132812 51.558594 328.015625 54.199219 334.875 56.980469 C 327.855469 54.695312 320.878906 52.289062 313.898438 49.863281 Z M 316.996094 44.699219 C 309.621094 42.234375 302.308594 39.632812 294.996094 36.992188 C 287.699219 34.308594 280.425781 31.589844 273.191406 28.75 C 265.957031 25.933594 258.761719 22.957031 251.644531 19.839844 C 259.117188 22.027344 266.53125 24.375 273.882812 26.878906 C 281.253906 29.34375 288.570312 31.964844 295.882812 34.605469 C 303.175781 37.285156 310.449219 40.007812 317.683594 42.847656 C 324.917969 45.664062 332.113281 48.640625 339.230469 51.777344 C 331.757812 49.589844 324.347656 47.222656 316.996094 44.71875 Z M 316.996094 44.699219 " fill-opacity="1" fill-rule="nonzero"/></g><path fill="#000000" d="M 173.40625 273.269531 C 169.738281 285 166.328125 295.863281 163.785156 304.160156 C 169.265625 300.355469 174.980469 295.410156 180.660156 289.535156 C 182.355469 283.957031 184.347656 277.589844 186.710938 270.3125 C 188.800781 263.847656 190.695312 258.171875 192.429688 253.105469 C 186.949219 260.398438 180.621094 267.257812 173.425781 273.269531 Z M 173.40625 273.269531 " fill-opacity="1" fill-rule="nonzero"/><path fill="#000000" d="M 250.898438 67.289062 C 251.410156 67.289062 251.941406 67.289062 252.472656 67.289062 C 253.894531 67.328125 255.429688 67.390625 257.066406 67.46875 C 258.425781 67.566406 259.867188 67.703125 261.382812 67.882812 C 263.671875 61.199219 266.136719 54.101562 268.796875 46.53125 C 264.8125 46.550781 261.304688 46.75 257.972656 47.519531 C 255.511719 54.320312 253.164062 60.902344 250.898438 67.289062 Z M 250.898438 67.289062 " fill-opacity="1" fill-rule="nonzero"/><path fill="#000000" d="M 288.507812 54.851562 C 284.191406 53.273438 279.402344 55.5 277.824219 59.820312 C 276.246094 64.136719 278.476562 68.925781 282.792969 70.503906 C 287.109375 72.082031 291.898438 69.851562 293.476562 65.535156 C 295.054688 61.21875 292.828125 56.429688 288.507812 54.851562 Z M 291.070312 64.648438 C 289.988281 67.644531 286.675781 69.183594 283.679688 68.097656 C 280.703125 67.015625 279.144531 63.683594 280.230469 60.707031 C 281.3125 57.710938 284.644531 56.171875 287.621094 57.257812 C 290.617188 58.339844 292.15625 61.652344 291.070312 64.648438 Z M 291.070312 64.648438 " fill-opacity="1" fill-rule="nonzero"/><path fill="#000000" d="M 287.089844 58.695312 C 284.902344 57.886719 282.457031 59.03125 281.667969 61.21875 C 280.859375 63.40625 282.003906 65.851562 284.191406 66.640625 C 286.378906 67.449219 288.824219 66.304688 289.613281 64.117188 C 290.421875 61.929688 289.277344 59.484375 287.089844 58.695312 Z M 286.460938 62.953125 C 286.8125 63.820312 287.070312 64.726562 287.089844 65.753906 C 286.320312 65.082031 285.789062 64.292969 285.355469 63.464844 C 284.488281 63.820312 283.582031 64.078125 282.554688 64.097656 C 283.226562 63.328125 284.015625 62.796875 284.84375 62.363281 C 284.488281 61.496094 284.230469 60.585938 284.210938 59.5625 C 284.980469 60.234375 285.511719 61.019531 285.945312 61.847656 C 286.8125 61.496094 287.722656 61.238281 288.746094 61.21875 C 288.074219 61.988281 287.289062 62.519531 286.460938 62.953125 Z M 286.460938 62.953125 " fill-opacity="1" fill-rule="nonzero"/><path fill="#000000" d="M 221.761719 237.925781 C 223.949219 238.714844 226.394531 237.589844 227.183594 235.402344 C 227.992188 233.214844 226.847656 230.789062 224.660156 229.980469 C 222.472656 229.171875 220.027344 230.316406 219.238281 232.503906 C 218.429688 234.691406 219.574219 237.136719 221.761719 237.925781 Z M 222.390625 233.648438 C 222.039062 232.78125 221.78125 231.875 221.761719 230.847656 C 222.53125 231.519531 223.0625 232.308594 223.496094 233.136719 C 224.363281 232.800781 225.269531 232.523438 226.296875 232.503906 C 225.625 233.273438 224.835938 233.804688 224.007812 234.238281 C 224.363281 235.105469 224.621094 236.015625 224.640625 237.039062 C 223.871094 236.367188 223.339844 235.578125 222.90625 234.753906 C 222.039062 235.105469 221.128906 235.363281 220.105469 235.382812 C 220.777344 234.613281 221.5625 234.082031 222.390625 233.648438 Z M 222.390625 233.648438 " fill-opacity="1" fill-rule="nonzero"/><path fill="#000000" d="M 166.664062 331.660156 C 162.523438 330.164062 157.949219 332.292969 156.433594 336.429688 C 154.933594 340.570312 157.0625 345.144531 161.203125 346.664062 C 165.34375 348.160156 169.914062 346.03125 171.433594 341.890625 C 172.933594 337.753906 170.804688 333.179688 166.664062 331.660156 Z M 169.007812 341.003906 C 167.984375 343.804688 164.871094 345.261719 162.070312 344.238281 C 159.269531 343.214844 157.8125 340.097656 158.835938 337.300781 C 159.863281 334.5 162.976562 333.039062 165.777344 334.066406 C 168.574219 335.089844 170.035156 338.207031 169.007812 341.003906 Z M 169.007812 341.003906 " fill-opacity="1" fill-rule="nonzero"/><path fill="#000000" d="M 165.304688 335.386719 C 163.214844 334.617188 160.90625 335.703125 160.15625 337.773438 C 159.390625 339.863281 160.472656 342.167969 162.5625 342.917969 C 164.652344 343.667969 166.960938 342.601562 167.707031 340.511719 C 168.476562 338.421875 167.394531 336.117188 165.304688 335.367188 Z M 164.730469 339.449219 C 165.046875 340.257812 165.285156 341.125 165.285156 342.089844 C 164.535156 341.476562 164.042969 340.730469 163.628906 339.960938 C 162.800781 340.296875 161.953125 340.53125 160.984375 340.511719 C 161.617188 339.761719 162.347656 339.25 163.113281 338.835938 C 162.800781 338.007812 162.5625 337.160156 162.5625 336.195312 C 163.3125 336.824219 163.804688 337.554688 164.238281 338.324219 C 165.066406 338.007812 165.914062 337.773438 166.878906 337.773438 C 166.25 338.519531 165.519531 339.015625 164.75 339.429688 Z M 164.730469 339.449219 " fill-opacity="1" fill-rule="nonzero"/><path fill="#000000" d="M 197.082031 351.234375 C 196.3125 353.324219 197.394531 355.632812 199.484375 356.382812 C 201.574219 357.148438 203.882812 356.066406 204.628906 353.976562 C 205.398438 351.886719 204.316406 349.582031 202.226562 348.832031 C 200.136719 348.082031 197.828125 349.148438 197.082031 351.234375 Z M 203.800781 351.234375 C 203.171875 351.984375 202.441406 352.476562 201.671875 352.890625 C 201.988281 353.71875 202.226562 354.566406 202.226562 355.535156 C 201.476562 354.902344 200.984375 354.171875 200.550781 353.40625 C 199.722656 353.71875 198.875 353.957031 197.910156 353.957031 C 198.539062 353.207031 199.269531 352.714844 200.039062 352.300781 C 199.722656 351.472656 199.484375 350.625 199.484375 349.660156 C 200.234375 350.289062 200.726562 351.019531 201.140625 351.789062 C 201.96875 351.472656 202.816406 351.234375 203.78125 351.234375 Z M 203.800781 351.234375 " fill-opacity="1" fill-rule="nonzero"/></svg>