<svg xmlns="http://www.w3.org/2000/svg" xmlns:xlink="http://www.w3.org/1999/xlink" width="500" zoomAndPan="magnify" viewBox="0 0 375 374.999991" height="500" preserveAspectRatio="xMidYMid meet" version="1.0"><path fill="#ffffff" d="M 108.699219 48.285156 C 109.585938 51.304688 110.808594 54.121094 112.304688 56.722656 C 112.796875 57.589844 113.332031 58.4375 113.882812 59.226562 C 114.710938 60.449219 115.617188 61.59375 116.582031 62.65625 C 118.179688 64.453125 119.953125 66.027344 121.847656 67.367188 C 123.304688 68.394531 124.804688 69.242188 126.320312 69.910156 C 127.070312 70.246094 127.839844 70.542969 128.609375 70.800781 C 130.894531 71.546875 133.222656 71.863281 135.488281 71.785156 C 135.863281 71.785156 136.238281 71.746094 136.613281 71.707031 C 137.734375 71.585938 138.859375 71.371094 139.964844 71.054688 C 141.519531 70.582031 142.980469 69.933594 144.359375 69.0625 C 148.144531 66.699219 151.179688 62.914062 153.089844 58.042969 C 153.25 57.628906 153.40625 57.195312 153.566406 56.761719 C 155.851562 50.121094 155.871094 42.394531 153.625 34.863281 C 151.96875 29.34375 149.246094 24.414062 145.738281 20.492188 C 144.140625 18.699219 142.367188 17.121094 140.476562 15.78125 C 138.289062 14.242188 136.019531 13.078125 133.714844 12.351562 C 132.945312 12.113281 132.175781 11.898438 131.40625 11.757812 C 130.265625 11.523438 129.101562 11.402344 127.957031 11.363281 C 127.1875 11.363281 126.441406 11.363281 125.691406 11.464844 C 124.566406 11.582031 123.445312 11.796875 122.359375 12.132812 C 120.800781 12.605469 119.34375 13.257812 117.964844 14.125 C 116.070312 15.308594 114.375 16.84375 112.898438 18.699219 C 112.167969 19.625 111.476562 20.628906 110.867188 21.714844 C 110.253906 22.796875 109.703125 23.941406 109.230469 25.164062 C 108.382812 27.332031 107.773438 29.617188 107.417969 31.984375 C 107.277344 32.929688 107.179688 33.894531 107.101562 34.863281 C 107.0625 35.355469 107.042969 35.828125 107.042969 36.320312 C 106.964844 39.75 107.378906 43.300781 108.285156 46.808594 C 108.421875 47.320312 108.558594 47.8125 108.699219 48.304688 Z M 111.988281 26.207031 C 113.664062 21.949219 116.269531 18.660156 119.519531 16.609375 C 120.664062 15.898438 121.90625 15.328125 123.1875 14.953125 C 128.136719 13.472656 133.65625 14.617188 138.722656 18.203125 C 144.261719 22.109375 148.539062 28.335938 150.746094 35.710938 C 152.796875 42.609375 152.796875 49.746094 150.726562 55.796875 C 150.589844 56.191406 150.449219 56.566406 150.3125 56.941406 C 148.636719 61.179688 146.035156 64.492188 142.78125 66.542969 C 141.636719 67.25 140.398438 67.824219 139.117188 68.195312 C 134.167969 69.675781 128.648438 68.53125 123.582031 64.945312 C 118.042969 61.042969 113.765625 54.8125 111.554688 47.4375 C 109.347656 40.046875 109.507812 32.515625 111.988281 26.207031 Z M 111.988281 26.207031 " fill-opacity="1" fill-rule="nonzero"/><path fill="#ffffff" d="M 292.835938 366.789062 C 291.023438 361.210938 282.625 343.253906 268.097656 315.359375 C 261 301.71875 253.707031 288.195312 246.707031 275.578125 C 245.960938 277.527344 245.191406 279.480469 244.441406 281.472656 C 245.960938 284.152344 247.496094 286.851562 249.054688 289.574219 C 250.769531 292.589844 252.503906 295.625 254.21875 298.660156 C 262.714844 313.644531 271.054688 328.347656 277.796875 340.234375 C 278.941406 342.265625 280.042969 344.199219 281.089844 346.050781 C 283.257812 349.875 285.1875 353.285156 286.824219 356.183594 C 290.550781 362.769531 292.796875 366.710938 292.796875 366.710938 L 292.523438 366.472656 C 292.640625 366.59375 292.738281 366.691406 292.835938 366.808594 Z M 292.835938 366.789062 " fill-opacity="1" fill-rule="nonzero"/><path fill="#ffffff" d="M 158.117188 178.039062 L 177.675781 209.421875 C 178.085938 208.179688 178.5 206.957031 178.914062 205.773438 C 166.320312 185.546875 160.660156 176.460938 160.660156 176.460938 C 159.339844 174.332031 157.882812 172.242188 156.304688 170.191406 C 155.8125 169.542969 155.300781 168.910156 154.785156 168.261719 C 153.722656 166.917969 152.597656 165.597656 151.457031 164.296875 C 149.742188 162.347656 147.945312 160.433594 146.09375 158.542969 C 144.871094 157.28125 143.609375 156.058594 142.367188 154.835938 C 141.738281 154.222656 141.105469 153.613281 140.476562 153.023438 C 127.820312 140.996094 114.453125 130.609375 109.035156 121.914062 C 105.445312 116.140625 100.28125 112.789062 95.46875 110.816406 C 93.875 110.164062 92.296875 109.652344 90.839844 109.277344 C 79.621094 113.023438 65.347656 109.730469 54.230469 99.894531 C 53.128906 98.4375 52.101562 96.957031 51.117188 95.441406 C 51.925781 96.328125 52.753906 97.195312 53.640625 98.042969 C 64.324219 108.214844 78.8125 112.253906 90.503906 108.332031 C 90.679688 108.273438 90.878906 108.273438 91.074219 108.332031 C 96.890625 109.871094 104.855469 113.378906 109.859375 121.421875 C 113.605469 127.414062 121.175781 134.234375 129.949219 142.101562 C 138.742188 149.984375 148.460938 158.71875 156.027344 168.300781 C 157.429688 170.074219 158.769531 171.867188 159.992188 173.699219 C 160.503906 174.449219 160.976562 175.199219 161.449219 175.96875 L 179.269531 204.589844 C 182.601562 194.734375 185.066406 187.183594 185.324219 185.746094 C 185.441406 184.820312 185.027344 182.355469 184.671875 180.1875 C 184.257812 177.683594 183.746094 174.707031 183.507812 171.355469 L 180 165.71875 L 179.585938 165.046875 L 165.292969 172.5 L 162.496094 173.957031 L 177.675781 162.820312 C 174.222656 159.703125 167.167969 155.878906 159.203125 151.582031 L 158.90625 151.425781 C 158.671875 151.289062 158.433594 151.167969 158.175781 151.03125 C 157.191406 150.5 156.1875 149.945312 155.160156 149.394531 C 139.292969 140.78125 119.441406 129.347656 110.316406 114.679688 C 107.773438 110.601562 105.5625 105.058594 103.769531 98.238281 C 103.710938 97.984375 103.75 97.726562 103.867188 97.492188 C 106.863281 92.304688 107.949219 85.996094 106.964844 79.296875 C 105.820312 71.410156 101.957031 63.722656 96.003906 57.375 C 91.527344 52.011719 85.652344 47.597656 78.910156 44.914062 C 82.105469 46.039062 85.277344 47.597656 88.296875 49.589844 C 89.203125 50.179688 90.089844 50.808594 90.957031 51.480469 C 92.277344 52.484375 93.539062 53.570312 94.78125 54.753906 C 101.070312 60.726562 105.425781 68.117188 107.277344 75.84375 C 107.535156 76.949219 107.75 78.054688 107.910156 79.175781 C 108.027344 80.042969 108.125 80.910156 108.1875 81.777344 C 108.304688 83.496094 108.285156 85.167969 108.144531 86.804688 C 108.007812 88.441406 107.730469 90.019531 107.339844 91.558594 C 106.746094 93.84375 105.859375 96.03125 104.695312 98.023438 C 105.03125 99.34375 105.425781 100.703125 105.878906 102.101562 C 107.179688 106.28125 108.914062 110.621094 111.121094 114.1875 C 117.511719 124.457031 129.121094 133.050781 141.066406 140.289062 C 142.898438 141.410156 144.753906 142.496094 146.585938 143.539062 C 149.484375 145.195312 152.34375 146.773438 155.101562 148.269531 C 156.128906 148.824219 157.132812 149.375 158.117188 149.90625 C 158.453125 150.085938 158.789062 150.261719 159.125 150.460938 C 161.054688 151.503906 162.929688 152.507812 164.703125 153.476562 C 167.027344 154.757812 169.175781 155.960938 171.109375 157.101562 C 174.285156 158.996094 176.867188 160.730469 178.5625 162.347656 C 179.269531 163.015625 179.824219 163.648438 180.21875 164.277344 C 180.21875 164.277344 181.222656 165.894531 183.351562 169.304688 C 183.273438 167.292969 183.292969 165.164062 183.46875 162.917969 L 183.273438 162.601562 C 175.859375 150.339844 171.5625 134.3125 167.777344 120.179688 C 164.644531 108.492188 161.941406 98.398438 158 91.871094 C 154.019531 85.269531 154.175781 78.113281 155.140625 72.988281 C 158.136719 69.890625 160.523438 66.109375 162.238281 61.730469 C 165.785156 52.722656 166.0625 42.195312 163.027344 32.0625 C 159.992188 21.929688 153.980469 13.277344 146.074219 7.71875 C 137.695312 1.804688 128.234375 0.03125 119.402344 2.652344 C 116.996094 3.359375 114.710938 4.40625 112.582031 5.726562 C 106.984375 9.214844 102.585938 14.675781 99.886719 21.515625 C 99.667969 22.070312 99.453125 22.640625 99.253906 23.210938 C 96.320312 31.789062 96.257812 41.722656 99.078125 51.183594 C 99.789062 53.550781 100.65625 55.816406 101.660156 57.984375 C 100.183594 56.113281 98.546875 54.320312 96.773438 52.625 C 82.933594 39.457031 63.160156 35.964844 49.757812 44.324219 C 48.476562 45.113281 47.273438 46.019531 46.148438 47.003906 C 27.757812 31.847656 28.289062 27.921875 27.441406 27.15625 C 26.515625 26.308594 24.917969 25.992188 20.917969 30.425781 C 16.894531 34.863281 17.367188 36.398438 18.292969 37.246094 C 19.140625 38.015625 23.046875 37.089844 40.234375 54.300781 C 32.585938 67.921875 36.609375 87.476562 50.78125 100.980469 C 62.253906 111.902344 77.847656 116.335938 90.757812 112.453125 C 95.785156 113.910156 102.273438 116.988281 106.371094 123.570312 C 110.414062 130.054688 118.179688 137.035156 127.1875 145.097656 C 138.070312 154.875 150.410156 165.953125 158 178.117188 Z M 113.726562 112.570312 C 111.554688 109.101562 109.585938 104.210938 107.96875 98.359375 C 110.964844 92.621094 111.988281 85.859375 110.945312 78.703125 C 110.375 74.800781 109.210938 70.957031 107.515625 67.25 C 110.039062 70.425781 112.9375 73.203125 116.148438 75.472656 C 122.042969 79.628906 128.550781 81.777344 135.015625 81.699219 C 139.488281 85.800781 142.960938 89.78125 145.070312 93.273438 C 153.132812 106.597656 154.550781 127.554688 155.082031 144.761719 C 139.984375 136.503906 121.964844 125.757812 113.726562 112.53125 Z M 160.265625 32.871094 C 160.800781 34.644531 161.214844 36.4375 161.546875 38.234375 C 161.765625 39.4375 161.921875 40.617188 162.042969 41.820312 C 162.4375 46 162.257812 50.121094 161.46875 54.0625 C 161.253906 55.1875 160.976562 56.289062 160.660156 57.375 C 160.347656 58.457031 159.972656 59.523438 159.558594 60.566406 C 159.339844 61.101562 159.125 61.632812 158.886719 62.164062 C 158.175781 63.722656 157.390625 65.179688 156.503906 66.542969 C 155.320312 68.375 153.980469 70.011719 152.5 71.449219 C 152.183594 72.910156 151.929688 74.542969 151.789062 76.257812 C 151.710938 77.128906 151.691406 78.015625 151.671875 78.921875 C 151.671875 82.09375 152.144531 85.523438 153.425781 88.953125 C 153.980469 90.414062 154.667969 91.890625 155.554688 93.332031 C 157.410156 96.386719 159.003906 100.425781 160.523438 105.078125 C 161.175781 107.070312 161.804688 109.199219 162.4375 111.386719 C 163.480469 115.054688 164.523438 118.976562 165.609375 123.039062 C 165.828125 123.847656 166.042969 124.675781 166.261719 125.484375 C 166.714844 127.117188 167.167969 128.773438 167.621094 130.429688 C 167.855469 131.257812 168.09375 132.105469 168.328125 132.933594 C 168.824219 134.609375 169.316406 136.285156 169.828125 137.960938 C 170.871094 141.3125 171.976562 144.644531 173.199219 147.917969 C 174.421875 151.148438 175.742188 154.304688 177.199219 157.339844 C 176.6875 156.984375 176.175781 156.628906 175.625 156.273438 C 170.5 145.175781 167.109375 132.539062 164.050781 121.125 C 160.996094 109.730469 158.375 99.894531 154.707031 93.84375 C 149.820312 85.761719 150.292969 77.085938 151.535156 71.234375 C 151.574219 71.035156 151.671875 70.878906 151.808594 70.738281 C 154.707031 67.921875 157.015625 64.371094 158.652344 60.214844 C 161.863281 52.050781 162.121094 42.433594 159.339844 33.148438 C 158.90625 31.6875 158.394531 30.25 157.824219 28.871094 C 157.113281 26.445312 156.226562 24.078125 155.121094 21.753906 C 154.886719 21.261719 154.628906 20.789062 154.375 20.292969 C 156.917969 24.039062 158.925781 28.277344 160.285156 32.851562 Z M 108.304688 24.75 C 110.292969 19.722656 113.449219 15.742188 117.429688 13.257812 C 118.871094 12.351562 120.445312 11.660156 122.0625 11.167969 C 128.214844 9.335938 134.9375 10.675781 141.027344 14.972656 C 147.296875 19.386719 152.105469 26.347656 154.570312 34.585938 C 156.855469 42.273438 156.835938 50.257812 154.511719 57.097656 C 154.351562 57.550781 154.195312 58.003906 154.019531 58.417969 C 152.027344 63.464844 148.875 67.429688 144.890625 69.910156 C 143.453125 70.820312 141.894531 71.527344 140.257812 72 C 134.109375 73.835938 127.386719 72.496094 121.292969 68.195312 C 115.027344 63.78125 110.214844 56.804688 107.75 48.582031 C 105.289062 40.34375 105.484375 31.886719 108.304688 24.75 Z M 103 50 C 105.78125 59.285156 111.261719 67.191406 118.4375 72.257812 C 123.976562 76.160156 130.085938 78.054688 136.058594 77.738281 C 136.316406 77.738281 136.574219 77.816406 136.769531 77.996094 C 142.03125 82.6875 145.976562 87.160156 148.460938 91.261719 C 157.410156 106.066406 158.613281 128.953125 159.105469 146.988281 C 158.769531 146.8125 158.433594 146.636719 158.097656 146.4375 C 157.585938 128.28125 156.34375 106.203125 147.613281 91.753906 C 146.882812 90.570312 146.054688 89.367188 145.167969 88.207031 C 144.28125 87.042969 143.3125 85.898438 142.308594 84.796875 C 141.796875 84.242188 141.304688 83.691406 140.769531 83.160156 C 139.746094 82.09375 138.703125 81.070312 137.65625 80.105469 C 137.144531 79.609375 136.632812 79.15625 136.117188 78.703125 C 134.582031 78.800781 133.023438 78.722656 131.464844 78.546875 C 130.699219 78.449219 129.910156 78.308594 129.140625 78.152344 C 127.601562 77.816406 126.066406 77.34375 124.527344 76.734375 C 122.242188 75.804688 120.011719 74.585938 117.84375 73.066406 C 111.003906 68.238281 105.664062 60.902344 102.664062 52.230469 C 102.6875 52.289062 102.707031 52.347656 102.746094 52.40625 C 102.46875 50.476562 102.253906 48.5625 102.132812 46.652344 C 102.371094 47.773438 102.664062 48.878906 103 50 Z M 50.898438 54.871094 C 52.003906 53.707031 53.265625 52.683594 54.644531 51.816406 C 64.621094 45.605469 79.800781 48.640625 90.738281 59.050781 C 96.96875 64.964844 100.992188 72.414062 102.09375 80.003906 C 103.160156 87.378906 101.324219 94 96.890625 98.632812 C 95.785156 99.796875 94.523438 100.820312 93.144531 101.6875 C 83.167969 107.898438 67.992188 104.863281 57.050781 94.453125 C 44.375 82.390625 41.59375 64.628906 50.878906 54.871094 Z M 50.898438 54.871094 " fill-opacity="1" fill-rule="nonzero"/><path fill="#ffffff" d="M 290.808594 351.925781 C 286.488281 342.660156 280.042969 329.75 272.710938 315.613281 C 264.6875 300.179688 256.445312 284.863281 248.582031 270.769531 C 248.128906 271.96875 247.65625 273.171875 247.183594 274.394531 C 251.519531 282.203125 255.855469 290.164062 260.035156 297.972656 C 260.960938 299.726562 261.886719 301.460938 262.8125 303.195312 C 262.875 303.332031 262.953125 303.453125 263.011719 303.589844 C 264.410156 306.230469 265.789062 308.851562 267.152344 311.457031 C 267.210938 311.59375 267.289062 311.730469 267.367188 311.871094 C 268.707031 314.433594 270.027344 316.976562 271.332031 319.457031 C 271.410156 319.597656 271.46875 319.734375 271.546875 319.871094 C 272.375 321.46875 273.183594 323.046875 273.992188 324.605469 C 274.503906 325.589844 274.996094 326.574219 275.488281 327.542969 C 276.257812 329.058594 277.007812 330.558594 277.757812 332.015625 C 277.835938 332.152344 277.894531 332.3125 277.972656 332.449219 C 288.007812 352.359375 294.691406 366.96875 294.199219 368.683594 C 294.199219 368.742188 294.136719 368.800781 294.097656 368.820312 C 293.785156 369.015625 292.71875 368.128906 291.042969 366.335938 C 290.511719 365.765625 289.898438 365.09375 289.230469 364.34375 C 286.628906 361.40625 283.136719 357.109375 278.980469 351.847656 C 272.710938 343.882812 264.964844 333.632812 256.644531 322.316406 C 255.027344 320.109375 253.390625 317.863281 251.734375 315.59375 C 247.359375 309.582031 242.882812 303.351562 238.429688 297.046875 C 237.777344 298.699219 237.148438 300.355469 236.496094 301.992188 C 242.195312 310.253906 248.128906 318.671875 254.121094 327.046875 C 263.40625 340 272 351.570312 278.308594 359.632812 C 281.582031 363.8125 284.222656 367.027344 286.15625 369.175781 C 288.421875 371.71875 290.785156 374.339844 293.390625 372.761719 C 293.390625 372.761719 293.390625 372.742188 293.390625 372.742188 C 293.804688 372.488281 294.117188 372.171875 294.355469 371.835938 C 294.769531 371.777344 295.203125 371.640625 295.636719 371.363281 C 298.238281 369.746094 296.957031 366.453125 295.734375 363.28125 C 294.691406 360.582031 293.015625 356.777344 290.765625 351.964844 Z M 290.808594 351.925781 " fill-opacity="1" fill-rule="nonzero"/><path fill="#ffffff" d="M 57.738281 93.707031 C 68.542969 103.996094 83.191406 106.695312 92.632812 100.820312 C 93.914062 100.015625 95.117188 99.046875 96.179688 97.925781 C 96.96875 97.097656 97.679688 96.1875 98.289062 95.242188 C 99.097656 93.960938 99.769531 92.601562 100.261719 91.125 C 100.890625 89.289062 101.246094 87.320312 101.363281 85.25 C 101.445312 83.59375 101.363281 81.878906 101.109375 80.105469 C 101.050781 79.648438 100.96875 79.175781 100.871094 78.722656 C 100.695312 77.816406 100.476562 76.890625 100.203125 75.984375 C 99.945312 75.078125 99.628906 74.171875 99.273438 73.261719 C 98.40625 71.035156 97.285156 68.847656 95.925781 66.757812 C 95.371094 65.929688 94.800781 65.101562 94.167969 64.292969 C 93.855469 63.898438 93.539062 63.484375 93.222656 63.089844 C 92.574219 62.304688 91.882812 61.554688 91.152344 60.804688 C 90.796875 60.429688 90.425781 60.074219 90.050781 59.699219 C 87.683594 57.453125 85.140625 55.5625 82.5 54.042969 C 81.75 53.609375 80.980469 53.214844 80.210938 52.839844 C 79.839844 52.644531 79.445312 52.484375 79.070312 52.308594 C 78.300781 51.972656 77.53125 51.65625 76.742188 51.382812 C 74.023438 50.414062 71.28125 49.804688 68.621094 49.609375 C 67.851562 49.546875 67.105469 49.527344 66.355469 49.527344 C 64.855469 49.527344 63.398438 49.6875 61.996094 49.941406 C 60.597656 50.21875 59.238281 50.613281 57.9375 51.144531 C 56.972656 51.539062 56.042969 52.03125 55.15625 52.566406 C 53.875 53.371094 52.671875 54.339844 51.609375 55.460938 C 42.699219 64.824219 45.4375 81.957031 57.738281 93.644531 Z M 53.777344 57.570312 C 54.664062 56.644531 55.652344 55.835938 56.753906 55.167969 C 65.210938 49.882812 78.359375 52.722656 88.019531 61.910156 C 93.597656 67.210938 97.207031 73.835938 98.191406 80.558594 C 99.078125 86.707031 97.621094 92.148438 94.050781 95.894531 C 93.183594 96.820312 92.179688 97.628906 91.074219 98.320312 C 82.617188 103.601562 69.46875 100.761719 59.808594 91.578125 C 48.710938 81.011719 46.011719 65.773438 53.796875 57.609375 Z M 53.777344 57.570312 " fill-opacity="1" fill-rule="nonzero"/><path fill="#ffffff" d="M 242.628906 286.164062 C 245.054688 290.402344 247.515625 294.640625 250 298.859375 C 251.675781 301.699219 253.390625 304.535156 255.105469 307.355469 C 256.289062 309.304688 257.492188 311.277344 258.714844 313.230469 C 264.628906 322.828125 270.796875 332.253906 277.144531 341.578125 L 260.035156 312.441406 C 258.242188 309.367188 256.464844 306.289062 254.671875 303.214844 C 252.957031 300.238281 251.242188 297.261719 249.527344 294.285156 C 247.515625 290.796875 245.527344 287.308594 243.535156 283.796875 C 243.21875 284.585938 242.925781 285.375 242.609375 286.183594 Z M 242.628906 286.164062 " fill-opacity="1" fill-rule="nonzero"/><path fill="#ffffff" d="M 341.429688 40.085938 L 339.992188 39.554688 L 339.972656 39.554688 C 338.867188 39.140625 337.664062 39.710938 337.269531 40.816406 L 335.890625 44.601562 L 335.988281 38.746094 L 332.28125 43.300781 L 332.382812 37.445312 L 328.675781 42 L 328.773438 36.144531 L 325.066406 40.699219 L 325.167969 34.84375 L 321.460938 39.394531 L 321.558594 33.542969 L 317.851562 38.09375 L 317.953125 32.242188 L 314.246094 36.792969 L 314.34375 30.9375 L 310.636719 35.492188 L 310.738281 29.617188 L 307.03125 34.171875 L 307.128906 28.296875 L 303.421875 32.851562 L 303.523438 26.976562 L 299.816406 31.53125 L 299.914062 25.65625 L 296.207031 30.210938 L 296.308594 24.335938 L 292.601562 28.890625 L 292.699219 23.015625 L 288.992188 27.570312 L 289.089844 21.695312 L 285.386719 26.246094 L 285.484375 20.375 L 281.777344 24.925781 L 281.875 19.070312 L 278.171875 23.625 L 278.269531 17.769531 L 274.5625 22.324219 L 274.660156 16.46875 L 270.957031 21.023438 L 271.054688 15.167969 L 267.347656 19.722656 L 267.445312 13.867188 L 263.742188 18.421875 L 263.839844 12.566406 L 260.132812 17.121094 L 260.230469 11.265625 L 256.527344 15.820312 L 256.625 9.945312 L 252.917969 14.5 L 253.015625 8.625 L 249.3125 13.179688 L 249.410156 7.304688 L 245.703125 11.855469 L 247.082031 8.074219 C 247.476562 6.96875 246.925781 5.765625 245.820312 5.371094 L 245.800781 5.371094 C 245.800781 5.371094 244.363281 4.839844 244.363281 4.839844 C 243.277344 4.445312 242.054688 4.996094 241.664062 6.101562 L 237.5625 17.355469 L 241.621094 18.835938 L 228.75 54.160156 C 223.386719 60.171875 220.390625 67.113281 218.480469 72.316406 L 210.96875 92.898438 L 210.652344 92.796875 C 203.675781 96.40625 196.441406 119.214844 193.070312 129.800781 C 191.511719 134.667969 192.597656 137.371094 194.214844 138.847656 L 189.71875 151.167969 C 185.382812 163.054688 187.078125 173.089844 188.179688 179.734375 C 188.652344 182.511719 189.046875 184.917969 188.851562 186.375 C 188.398438 189.273438 178.976562 216.695312 170.65625 240.902344 C 161.351562 267.96875 150.824219 298.621094 146.921875 311.808594 C 142.191406 327.757812 138.800781 347.609375 149.484375 351.511719 L 150.195312 351.769531 C 151.003906 360.582031 156.738281 368.582031 165.628906 371.816406 C 174.5 375.050781 184.042969 372.625 190.347656 366.394531 L 191.039062 366.652344 C 196.933594 368.800781 206.496094 365.566406 218.558594 337.910156 C 218.835938 337.257812 219.148438 336.550781 219.464844 335.800781 L 220.804688 336.984375 C 222.601562 338.582031 224.789062 338.1875 225.695312 336.078125 L 229.835938 326.496094 C 230.742188 324.40625 230.011719 321.410156 228.21875 319.8125 L 226.5625 318.335938 C 232.296875 303.90625 239.433594 285.394531 246.019531 268.34375 C 255.226562 244.46875 265.671875 217.40625 267.191406 214.902344 C 267.960938 213.660156 269.8125 212.082031 271.960938 210.25 C 277.085938 205.890625 284.832031 199.289062 289.171875 187.402344 L 293.664062 175.0625 C 295.851562 174.960938 298.414062 173.601562 300.367188 168.871094 C 304.605469 158.601562 313.734375 136.503906 310.71875 129.25 L 310.421875 129.128906 L 317.933594 108.550781 C 319.84375 103.324219 322.011719 96.089844 321.757812 88.046875 L 334.628906 52.722656 L 338.691406 54.199219 L 342.789062 42.945312 C 343.183594 41.859375 342.632812 40.636719 341.527344 40.242188 Z M 182.324219 366.257812 C 177.773438 368.742188 172.035156 369.136719 167.089844 367.300781 C 162.121094 365.527344 157.980469 361.527344 156.089844 356.695312 C 155.65625 355.652344 155.359375 354.546875 155.140625 353.445312 L 158.433594 354.644531 C 158.570312 354.902344 158.671875 355.179688 158.808594 355.433594 C 160.9375 359.296875 164.367188 362.234375 168.410156 363.714844 C 172.429688 365.191406 176.964844 365.152344 181.085938 363.558594 C 181.359375 363.4375 181.617188 363.320312 181.890625 363.203125 L 185.164062 364.382812 C 184.296875 365.09375 183.351562 365.726562 182.347656 366.257812 Z M 314.601562 107.230469 L 314.046875 108.726562 C 308.941406 122.742188 291.554688 170.449219 285.839844 186.101562 C 283.078125 193.671875 278.898438 198.855469 274.878906 202.796875 C 274.621094 203.113281 274.347656 203.449219 274.03125 203.800781 C 273.027344 204.867188 271.882812 206.167969 270.464844 207.351562 C 269.042969 208.515625 267.484375 209.757812 265.871094 210.859375 C 264.253906 211.886719 262.578125 212.832031 260.980469 213.660156 C 260.683594 213.875 260.410156 214.09375 260.132812 214.289062 C 260.171875 214.191406 260.210938 214.113281 260.269531 214.015625 C 258.851562 214.703125 257.433594 215.214844 256.230469 215.691406 C 254.851562 216.222656 253.648438 216.476562 252.820312 216.695312 C 251.972656 216.871094 251.5 216.972656 251.5 216.972656 C 251.5 216.972656 251.914062 216.734375 252.664062 216.300781 C 253.410156 215.90625 254.4375 215.234375 255.699219 214.546875 C 256.960938 213.855469 258.378906 212.929688 259.917969 212.003906 C 260.625 211.589844 261.355469 211.136719 262.085938 210.664062 C 263.40625 208.867188 265.316406 207.234375 267.703125 205.222656 C 272.632812 201.0625 279.394531 195.367188 283.136719 185.09375 L 313.792969 101.019531 C 316.75 92.917969 316.570312 69.871094 293.605469 57.730469 C 291.28125 64.886719 289.113281 71.804688 287.101562 78.507812 C 290.964844 80.617188 294.21875 82.746094 296.957031 84.714844 C 298.257812 85.703125 299.460938 86.648438 300.585938 87.535156 C 301.6875 88.421875 302.65625 89.328125 303.5625 90.136719 C 305.375 91.753906 306.792969 93.253906 307.957031 94.535156 C 310.304688 97.078125 311.464844 98.890625 312.175781 99.972656 C 312.867188 101.058594 313.023438 101.492188 313.023438 101.492188 C 291.695312 78.289062 257.75 65.910156 226.484375 69.953125 C 226.484375 69.953125 226.917969 70.089844 228.199219 70.226562 C 229.480469 70.40625 231.589844 70.464844 234.960938 70.757812 C 236.636719 70.878906 238.625 71.035156 240.953125 71.253906 C 241.269531 71.292969 241.621094 71.332031 241.957031 71.351562 C 228.75 108.824219 219.269531 138.671875 215.128906 159.566406 C 215.957031 159.703125 216.804688 159.863281 217.710938 160 C 220.390625 160.511719 223.40625 161.164062 226.71875 162.03125 C 229.382812 146.65625 235.667969 121.640625 252.226562 72.769531 C 257.847656 73.777344 264.609375 75.3125 272.511719 78.152344 C 277.480469 79.984375 281.777344 81.9375 285.503906 83.828125 C 274.640625 120.554688 267.878906 150.519531 260.015625 175.082031 C 260.625 175.414062 261.21875 175.730469 261.769531 176.046875 C 263.089844 176.816406 264.3125 177.546875 265.457031 178.214844 C 266.597656 178.90625 267.605469 179.59375 268.570312 180.207031 C 270.484375 181.429688 272.039062 182.589844 273.339844 183.558594 C 275.941406 185.488281 277.421875 186.929688 278.289062 187.777344 C 279.15625 188.644531 279.414062 189 279.414062 189 C 254.496094 172.460938 225.636719 161.933594 195.910156 158.5625 C 195.910156 158.5625 196.28125 158.777344 197.445312 159.191406 C 198.609375 159.625 200.539062 160.136719 203.636719 161.003906 C 205.171875 161.417969 207.007812 161.894531 209.175781 162.484375 C 210.257812 162.761719 211.421875 163.074219 212.664062 163.410156 C 213.214844 163.570312 213.769531 163.707031 214.359375 163.863281 C 213.335938 169.894531 212.800781 175.0625 212.863281 179.339844 C 213.019531 193.355469 207.164062 216.636719 194.410156 238.714844 C 199.691406 219.886719 199.734375 215.589844 199.734375 215.589844 L 163.757812 326.613281 C 163.757812 326.613281 168.25 320.304688 181.597656 280.03125 C 191.570312 267.871094 200.914062 253.066406 207.933594 236.839844 C 208.761719 239.03125 210.496094 240.882812 212.863281 241.75 C 217.179688 243.328125 221.96875 241.078125 223.546875 236.78125 C 225.121094 232.464844 222.894531 227.675781 218.578125 226.097656 C 216.429688 225.308594 214.164062 225.46875 212.230469 226.355469 C 226.976562 189.3125 222.953125 188.03125 225.910156 167.195312 C 229.675781 168.359375 233.855469 169.71875 238.507812 171.394531 C 246.789062 174.449219 253.292969 177.269531 258.515625 179.632812 C 257.769531 181.882812 257 184.089844 256.210938 186.257812 C 252.484375 196.488281 246.867188 212.238281 239.613281 230.121094 C 239.613281 230.121094 195.691406 338.226562 195.691406 338.226562 C 195.691406 338.226562 196.382812 329.492188 215.207031 283.167969 C 215.285156 282.949219 215.386719 282.753906 215.464844 282.535156 C 200.738281 310.195312 183.035156 335.664062 163.144531 348.277344 L 171.445312 351.316406 L 186.683594 356.875 C 187.589844 358.292969 188.949219 359.4375 190.644531 360.046875 C 194.785156 361.566406 199.359375 359.417969 200.875 355.277344 C 201.488281 353.621094 201.488281 351.886719 201.035156 350.308594 C 203.851562 346.109375 206.59375 340.75 208.9375 335.425781 C 212.78125 326.632812 221.140625 306.605469 229.992188 285.394531 C 243.238281 253.65625 253.175781 229.921875 258.222656 218.507812 C 258.832031 218.234375 259.421875 217.9375 260.015625 217.640625 C 260.902344 217.1875 261.769531 216.714844 262.617188 216.222656 C 254.988281 234.023438 225.261719 313.523438 215.304688 336.3125 C 204.425781 361.289062 196.300781 364.71875 192.105469 363.203125 C 187.90625 361.664062 171.328125 355.632812 171.328125 355.632812 C 171.328125 355.632812 154.765625 349.601562 150.546875 348.0625 C 146.351562 346.523438 142.347656 338.679688 150.09375 312.558594 C 157.132812 288.824219 185.363281 209.34375 191.117188 190.417969 C 191.433594 191.265625 191.75 192.09375 192.105469 192.921875 C 193.265625 195.621094 194.628906 198.28125 196.5 200.628906 C 195.949219 197.691406 195.296875 194.890625 194.648438 192.074219 C 194.015625 189.273438 193.324219 186.496094 192.65625 183.714844 L 191.394531 178.570312 C 190.289062 171.945312 188.871094 162.957031 192.832031 152.113281 C 198.53125 136.484375 215.917969 88.777344 221.042969 74.761719 L 221.59375 73.261719 C 225.871094 61.535156 238.25 33.304688 282.921875 49.589844 C 327.589844 65.871094 318.898438 95.441406 314.621094 107.1875 Z M 217.691406 228.523438 C 220.6875 229.605469 222.226562 232.9375 221.140625 235.914062 C 220.058594 238.910156 216.746094 240.449219 213.75 239.363281 C 210.753906 238.28125 209.214844 234.96875 210.300781 231.972656 C 211.382812 228.976562 214.714844 227.4375 217.691406 228.523438 Z M 198.453125 354.46875 C 197.425781 357.269531 194.3125 358.726562 191.511719 357.703125 C 188.714844 356.675781 187.253906 353.5625 188.28125 350.761719 C 189.304688 347.964844 192.417969 346.503906 195.21875 347.53125 C 198.019531 348.554688 199.476562 351.667969 198.453125 354.46875 Z M 302.398438 51.578125 C 296.425781 49.507812 290.472656 47.339844 284.519531 45.210938 C 278.585938 43.003906 272.652344 40.835938 266.738281 38.566406 L 257.886719 35.136719 C 254.949219 33.957031 251.992188 32.8125 249.074219 31.589844 C 252.089844 32.535156 255.085938 33.5625 258.101562 34.546875 L 267.074219 37.621094 C 273.046875 39.691406 279 41.859375 284.953125 43.988281 C 290.886719 46.199219 296.820312 48.367188 302.734375 50.632812 C 308.648438 52.898438 314.542969 55.1875 320.394531 57.589844 C 314.363281 55.679688 308.371094 53.628906 302.398438 51.558594 Z M 306.378906 49.84375 C 299.421875 47.417969 292.480469 44.875 285.523438 42.394531 C 278.605469 39.808594 271.664062 37.285156 264.765625 34.664062 L 254.4375 30.703125 C 251.007812 29.34375 247.554688 28.023438 244.144531 26.621094 C 247.65625 27.746094 251.144531 28.949219 254.652344 30.132812 L 265.121094 33.757812 C 272.078125 36.183594 279.019531 38.726562 285.976562 41.210938 C 292.894531 43.792969 299.835938 46.316406 306.734375 48.9375 C 313.632812 51.558594 320.515625 54.199219 327.375 56.980469 C 320.355469 54.695312 313.378906 52.289062 306.398438 49.863281 Z M 309.496094 44.699219 C 302.121094 42.234375 294.808594 39.632812 287.496094 36.992188 C 280.199219 34.308594 272.925781 31.589844 265.691406 28.75 C 258.457031 25.933594 251.261719 22.957031 244.144531 19.839844 C 251.617188 22.027344 259.03125 24.375 266.382812 26.878906 C 273.753906 29.34375 281.070312 31.964844 288.382812 34.605469 C 295.675781 37.285156 302.949219 40.007812 310.183594 42.847656 C 317.417969 45.664062 324.613281 48.640625 331.730469 51.777344 C 324.257812 49.589844 316.847656 47.222656 309.496094 44.71875 Z M 309.496094 44.699219 " fill-opacity="1" fill-rule="nonzero"/><path fill="#ffffff" d="M 165.90625 273.269531 C 162.238281 285 158.828125 295.863281 156.285156 304.160156 C 161.765625 300.355469 167.480469 295.410156 173.160156 289.535156 C 174.855469 283.957031 176.847656 277.589844 179.210938 270.3125 C 181.300781 263.847656 183.195312 258.171875 184.929688 253.105469 C 179.449219 260.398438 173.121094 267.257812 165.925781 273.269531 Z M 165.90625 273.269531 " fill-opacity="1" fill-rule="nonzero"/><path fill="#ffffff" d="M 243.398438 67.289062 C 243.910156 67.289062 244.441406 67.289062 244.972656 67.289062 C 246.394531 67.328125 247.929688 67.390625 249.566406 67.46875 C 250.925781 67.566406 252.367188 67.703125 253.882812 67.882812 C 256.171875 61.199219 258.636719 54.101562 261.296875 46.53125 C 257.3125 46.550781 253.804688 46.75 250.472656 47.519531 C 248.011719 54.320312 245.664062 60.902344 243.398438 67.289062 Z M 243.398438 67.289062 " fill-opacity="1" fill-rule="nonzero"/><path fill="#ffffff" d="M 281.007812 54.851562 C 276.691406 53.273438 271.902344 55.5 270.324219 59.820312 C 268.746094 64.136719 270.976562 68.925781 275.292969 70.503906 C 279.609375 72.082031 284.398438 69.851562 285.976562 65.535156 C 287.554688 61.21875 285.328125 56.429688 281.007812 54.851562 Z M 283.570312 64.648438 C 282.488281 67.644531 279.175781 69.183594 276.179688 68.097656 C 273.203125 67.015625 271.644531 63.683594 272.730469 60.707031 C 273.8125 57.710938 277.144531 56.171875 280.121094 57.257812 C 283.117188 58.339844 284.65625 61.652344 283.570312 64.648438 Z M 283.570312 64.648438 " fill-opacity="1" fill-rule="nonzero"/><path fill="#ffffff" d="M 279.589844 58.695312 C 277.402344 57.886719 274.957031 59.03125 274.167969 61.21875 C 273.359375 63.40625 274.503906 65.851562 276.691406 66.640625 C 278.878906 67.449219 281.324219 66.304688 282.113281 64.117188 C 282.921875 61.929688 281.777344 59.484375 279.589844 58.695312 Z M 278.960938 62.953125 C 279.3125 63.820312 279.570312 64.726562 279.589844 65.753906 C 278.820312 65.082031 278.289062 64.292969 277.855469 63.464844 C 276.988281 63.820312 276.082031 64.078125 275.054688 64.097656 C 275.726562 63.328125 276.515625 62.796875 277.34375 62.363281 C 276.988281 61.496094 276.730469 60.585938 276.710938 59.5625 C 277.480469 60.234375 278.011719 61.019531 278.445312 61.847656 C 279.3125 61.496094 280.222656 61.238281 281.246094 61.21875 C 280.574219 61.988281 279.789062 62.519531 278.960938 62.953125 Z M 278.960938 62.953125 " fill-opacity="1" fill-rule="nonzero"/><path fill="#ffffff" d="M 214.261719 237.925781 C 216.449219 238.714844 218.894531 237.589844 219.683594 235.402344 C 220.492188 233.214844 219.347656 230.789062 217.160156 229.980469 C 214.972656 229.171875 212.527344 230.316406 211.738281 232.503906 C 210.929688 234.691406 212.074219 237.136719 214.261719 237.925781 Z M 214.890625 233.648438 C 214.539062 232.78125 214.28125 231.875 214.261719 230.847656 C 215.03125 231.519531 215.5625 232.308594 215.996094 233.136719 C 216.863281 232.800781 217.769531 232.523438 218.796875 232.503906 C 218.125 233.273438 217.335938 233.804688 216.507812 234.238281 C 216.863281 235.105469 217.121094 236.015625 217.140625 237.039062 C 216.371094 236.367188 215.839844 235.578125 215.40625 234.753906 C 214.539062 235.105469 213.628906 235.363281 212.605469 235.382812 C 213.277344 234.613281 214.0625 234.082031 214.890625 233.648438 Z M 214.890625 233.648438 " fill-opacity="1" fill-rule="nonzero"/><path fill="#ffffff" d="M 159.164062 331.660156 C 155.023438 330.164062 150.449219 332.292969 148.933594 336.429688 C 147.433594 340.570312 149.5625 345.144531 153.703125 346.664062 C 157.84375 348.160156 162.414062 346.03125 163.933594 341.890625 C 165.433594 337.753906 163.304688 333.179688 159.164062 331.660156 Z M 161.507812 341.003906 C 160.484375 343.804688 157.371094 345.261719 154.570312 344.238281 C 151.769531 343.214844 150.3125 340.097656 151.335938 337.300781 C 152.363281 334.5 155.476562 333.039062 158.277344 334.066406 C 161.074219 335.089844 162.535156 338.207031 161.507812 341.003906 Z M 161.507812 341.003906 " fill-opacity="1" fill-rule="nonzero"/><path fill="#ffffff" d="M 157.804688 335.386719 C 155.714844 334.617188 153.40625 335.703125 152.65625 337.773438 C 151.890625 339.863281 152.972656 342.167969 155.0625 342.917969 C 157.152344 343.667969 159.460938 342.601562 160.207031 340.511719 C 160.976562 338.421875 159.894531 336.117188 157.804688 335.367188 Z M 157.230469 339.449219 C 157.546875 340.257812 157.785156 341.125 157.785156 342.089844 C 157.035156 341.476562 156.542969 340.730469 156.128906 339.960938 C 155.300781 340.296875 154.453125 340.53125 153.484375 340.511719 C 154.117188 339.761719 154.847656 339.25 155.613281 338.835938 C 155.300781 338.007812 155.0625 337.160156 155.0625 336.195312 C 155.8125 336.824219 156.304688 337.554688 156.738281 338.324219 C 157.566406 338.007812 158.414062 337.773438 159.378906 337.773438 C 158.75 338.519531 158.019531 339.015625 157.25 339.429688 Z M 157.230469 339.449219 " fill-opacity="1" fill-rule="nonzero"/><path fill="#ffffff" d="M 189.582031 351.234375 C 188.8125 353.324219 189.894531 355.632812 191.984375 356.382812 C 194.074219 357.148438 196.382812 356.066406 197.128906 353.976562 C 197.898438 351.886719 196.816406 349.582031 194.726562 348.832031 C 192.636719 348.082031 190.328125 349.148438 189.582031 351.234375 Z M 196.300781 351.234375 C 195.671875 351.984375 194.941406 352.476562 194.171875 352.890625 C 194.488281 353.71875 194.726562 354.566406 194.726562 355.535156 C 193.976562 354.902344 193.484375 354.171875 193.050781 353.40625 C 192.222656 353.71875 191.375 353.957031 190.410156 353.957031 C 191.039062 353.207031 191.769531 352.714844 192.539062 352.300781 C 192.222656 351.472656 191.984375 350.625 191.984375 349.660156 C 192.734375 350.289062 193.226562 351.019531 193.640625 351.789062 C 194.46875 351.472656 195.316406 351.234375 196.28125 351.234375 Z M 196.300781 351.234375 " fill-opacity="1" fill-rule="nonzero"/></svg>